<svg xmlns="http://www.w3.org/2000/svg" xmlns:xlink="http://www.w3.org/1999/xlink" width="100" zoomAndPan="magnify" viewBox="0 0 75 74.999997" height="100" preserveAspectRatio="xMidYMid meet" version="1.0"><path fill="#feffff" d="M 41.40625 75.054688 C 27.601562 75.054688 13.828125 75.054688 0.0546875 75.054688 C 0.0546875 50.054688 0.0546875 25.054688 0.0546875 0.0546875 C 25.054688 0.0546875 50.054688 0.0546875 75.054688 0.0546875 C 75.054688 25.054688 75.054688 50.054688 75.054688 75.054688 C 63.847656 75.054688 52.640625 75.054688 41.40625 75.054688 M 65.003906 34.910156 C 65.003906 33.660156 65.003906 32.410156 65.003906 31.136719 C 65.132812 31.136719 65.234375 31.136719 65.335938 31.136719 C 65.710938 31.140625 66.085938 31.15625 66.460938 31.148438 C 66.851562 31.136719 67.027344 30.949219 67.019531 30.566406 C 67.015625 30.144531 67 29.722656 66.980469 29.304688 C 66.964844 28.933594 66.785156 28.769531 66.40625 28.761719 C 65.445312 28.742188 64.480469 28.71875 63.515625 28.707031 C 62.957031 28.699219 62.417969 28.609375 61.886719 28.449219 C 60.902344 28.152344 59.984375 27.710938 59.089844 27.21875 C 57.332031 26.25 55.6875 25.109375 54.070312 23.925781 C 52.597656 22.84375 51.144531 21.738281 49.851562 20.441406 C 49.277344 19.859375 48.609375 19.390625 47.90625 18.972656 C 47.382812 18.664062 46.878906 18.320312 46.382812 17.972656 C 45.632812 17.457031 44.867188 16.972656 44.058594 16.558594 C 42.472656 15.75 40.800781 15.230469 39.027344 15.066406 C 37.132812 14.894531 35.273438 15.132812 33.457031 15.695312 C 31.996094 16.148438 30.617188 16.800781 29.273438 17.527344 C 27.570312 18.453125 25.886719 19.417969 24.371094 20.636719 C 23.3125 21.484375 22.277344 22.367188 21.242188 23.242188 C 20.269531 24.0625 19.28125 24.867188 18.164062 25.492188 C 18.078125 25.539062 17.988281 25.582031 17.867188 25.648438 C 17.867188 25.441406 17.863281 25.285156 17.867188 25.128906 C 17.878906 24.859375 17.882812 24.585938 17.914062 24.316406 C 17.972656 23.804688 18.183594 23.367188 18.621094 23.0625 C 19.222656 22.640625 19.757812 22.144531 20.203125 21.558594 C 20.492188 21.175781 20.730469 20.761719 20.835938 20.285156 C 21.035156 19.398438 21.136719 18.496094 21.101562 17.582031 C 21.085938 17.210938 21.019531 16.839844 20.945312 16.476562 C 20.890625 16.207031 20.730469 15.976562 20.527344 15.789062 C 20.332031 15.613281 20.167969 15.636719 20.003906 15.84375 C 19.976562 15.882812 19.949219 15.921875 19.929688 15.964844 C 19.78125 16.257812 19.628906 16.546875 19.59375 16.878906 C 19.5625 17.148438 19.53125 17.417969 19.492188 17.6875 C 19.421875 18.1875 19.359375 18.6875 19.261719 19.183594 C 19.214844 19.417969 19.113281 19.648438 19 19.859375 C 18.859375 20.121094 18.648438 20.1875 18.355469 20.125 C 18.074219 20.066406 17.875 19.890625 17.769531 19.644531 C 17.644531 19.355469 17.53125 19.050781 17.480469 18.742188 C 17.378906 18.105469 17.335938 17.457031 17.246094 16.820312 C 17.191406 16.421875 17.101562 16.027344 17.015625 15.636719 C 16.96875 15.425781 16.847656 15.261719 16.632812 15.183594 C 16.292969 15.0625 15.917969 15.183594 15.714844 15.480469 C 15.53125 15.75 15.40625 16.046875 15.394531 16.371094 C 15.371094 16.921875 15.355469 17.472656 15.375 18.023438 C 15.398438 18.679688 15.464844 19.332031 15.503906 19.984375 C 15.511719 20.140625 15.488281 20.304688 15.445312 20.453125 C 15.382812 20.660156 15.21875 20.742188 15.027344 20.648438 C 14.863281 20.566406 14.691406 20.460938 14.582031 20.316406 C 14.367188 20.035156 14.15625 19.742188 14.015625 19.417969 C 13.703125 18.6875 13.472656 17.925781 13.359375 17.132812 C 13.316406 16.832031 13.230469 16.53125 13.160156 16.230469 C 13.128906 16.097656 13.050781 15.996094 12.910156 15.957031 C 12.527344 15.859375 12.246094 16.015625 12.125 16.402344 C 12.101562 16.480469 12.085938 16.5625 12.074219 16.648438 C 11.976562 17.230469 12.066406 17.808594 12.167969 18.378906 C 12.289062 19.058594 12.476562 19.726562 12.613281 20.402344 C 12.800781 21.300781 13.273438 22.003906 14.007812 22.535156 C 14.242188 22.707031 14.472656 22.882812 14.699219 23.066406 C 15.179688 23.457031 15.480469 23.945312 15.449219 24.589844 C 15.445312 24.703125 15.457031 24.8125 15.457031 24.925781 C 15.457031 25.574219 15.445312 26.21875 15.464844 26.863281 C 15.46875 27.089844 15.382812 27.195312 15.195312 27.292969 C 13.890625 27.976562 12.488281 28.320312 11.039062 28.480469 C 10.3125 28.558594 9.582031 28.597656 8.855469 28.652344 C 8.511719 28.679688 8.3125 28.863281 8.316406 29.203125 C 8.320312 29.644531 8.332031 30.085938 8.359375 30.523438 C 8.378906 30.875 8.574219 31.050781 8.925781 31.039062 C 9.308594 31.023438 9.691406 30.996094 10.074219 30.972656 C 10.277344 30.960938 10.480469 30.949219 10.695312 30.9375 C 10.707031 31.011719 10.722656 31.066406 10.722656 31.121094 C 10.71875 32.113281 10.710938 33.105469 10.707031 34.097656 C 10.703125 34.460938 10.695312 34.828125 10.703125 35.191406 C 10.710938 35.507812 10.882812 35.714844 11.164062 35.730469 C 11.640625 35.753906 12.117188 35.761719 12.59375 35.753906 C 12.890625 35.75 13.066406 35.546875 13.085938 35.246094 C 13.089844 35.179688 13.089844 35.113281 13.089844 35.046875 C 13.09375 33.765625 13.097656 32.484375 13.101562 31.199219 C 13.105469 30.996094 13.121094 30.792969 13.132812 30.613281 C 13.933594 30.359375 14.703125 30.113281 15.480469 29.863281 C 15.484375 29.898438 15.492188 29.933594 15.492188 29.96875 C 15.488281 31.160156 15.484375 32.347656 15.480469 33.535156 C 15.480469 34.078125 15.46875 34.621094 15.476562 35.164062 C 15.480469 35.550781 15.667969 35.726562 16.050781 35.738281 C 16.460938 35.75 16.875 35.757812 17.285156 35.757812 C 17.660156 35.757812 17.859375 35.558594 17.863281 35.1875 C 17.867188 34.832031 17.867188 34.476562 17.867188 34.121094 C 17.878906 32.324219 17.894531 30.527344 17.898438 28.726562 C 17.898438 28.523438 17.96875 28.40625 18.144531 28.304688 C 18.675781 27.996094 19.199219 27.664062 19.730469 27.347656 C 20.746094 26.738281 21.667969 26.007812 22.574219 25.246094 C 23.691406 24.308594 24.792969 23.347656 25.941406 22.449219 C 27.832031 20.972656 29.925781 19.824219 32.085938 18.792969 C 33.433594 18.152344 34.84375 17.691406 36.335938 17.503906 C 37.734375 17.324219 39.117188 17.382812 40.488281 17.738281 C 41.933594 18.113281 43.257812 18.757812 44.496094 19.589844 C 45.269531 20.109375 46.019531 20.675781 46.839844 21.128906 C 47.351562 21.414062 47.796875 21.785156 48.222656 22.183594 C 48.707031 22.636719 49.171875 23.117188 49.683594 23.539062 C 50.542969 24.246094 51.425781 24.925781 52.316406 25.59375 C 54.023438 26.878906 55.773438 28.097656 57.636719 29.144531 C 57.785156 29.226562 57.824219 29.324219 57.824219 29.480469 C 57.824219 30.800781 57.832031 32.121094 57.835938 33.4375 C 57.839844 34.027344 57.84375 34.617188 57.851562 35.207031 C 57.859375 35.550781 58.035156 35.75 58.363281 35.753906 C 58.828125 35.761719 59.296875 35.753906 59.765625 35.730469 C 60.03125 35.722656 60.207031 35.523438 60.226562 35.257812 C 60.230469 35.191406 60.230469 35.125 60.230469 35.058594 C 60.226562 33.625 60.226562 32.195312 60.226562 30.761719 C 60.226562 30.660156 60.226562 30.558594 60.226562 30.453125 C 61.023438 30.671875 61.792969 30.878906 62.601562 31.097656 C 62.601562 31.160156 62.597656 31.253906 62.601562 31.34375 C 62.609375 32.617188 62.628906 33.890625 62.621094 35.164062 C 62.617188 35.554688 62.882812 35.785156 63.230469 35.765625 C 63.566406 35.746094 63.902344 35.726562 64.238281 35.742188 C 64.8125 35.773438 65.058594 35.5625 65.003906 34.910156 M 65.875 40.40625 C 65.992188 39.898438 66.113281 39.386719 66.222656 38.875 C 66.265625 38.683594 66.292969 38.488281 66.296875 38.292969 C 66.300781 38.042969 66.242188 37.996094 66 37.996094 C 65.042969 37.992188 64.089844 37.992188 63.132812 37.996094 C 62.882812 37.996094 62.8125 38.054688 62.816406 38.308594 C 62.820312 38.496094 62.859375 38.679688 62.898438 38.863281 C 62.980469 39.234375 63.09375 39.605469 63.15625 39.980469 C 63.316406 40.898438 63.230469 41.828125 63.25 42.753906 C 63.253906 42.914062 63.152344 43 63.011719 43.023438 C 62.875 43.046875 62.734375 43.050781 62.59375 43.039062 C 61.707031 42.972656 60.820312 42.898438 59.9375 42.820312 C 59.476562 42.78125 59.234375 42.515625 59.21875 42.054688 C 59.214844 41.855469 59.226562 41.660156 59.214844 41.464844 C 59.15625 40.527344 59.28125 39.617188 59.585938 38.730469 C 59.632812 38.59375 59.652344 38.4375 59.65625 38.289062 C 59.65625 38.050781 59.59375 37.996094 59.351562 37.996094 C 58.398438 37.992188 57.441406 37.992188 56.488281 37.996094 C 56.226562 37.996094 56.160156 38.050781 56.183594 38.308594 C 56.203125 38.53125 56.253906 38.753906 56.316406 38.964844 C 56.488281 39.550781 56.617188 40.144531 56.617188 40.757812 C 56.621094 42.675781 56.621094 44.597656 56.617188 46.515625 C 56.617188 46.636719 56.609375 46.757812 56.601562 46.878906 C 56.570312 47.398438 56.425781 47.890625 56.273438 48.382812 C 56.226562 48.535156 56.191406 48.691406 56.179688 48.847656 C 56.164062 49.113281 56.222656 49.171875 56.484375 49.21875 C 57 49.308594 57.515625 49.398438 58.035156 49.488281 C 58.464844 49.5625 58.898438 49.644531 59.332031 49.714844 C 59.613281 49.761719 59.671875 49.710938 59.65625 49.425781 C 59.644531 49.277344 59.617188 49.128906 59.574219 48.988281 C 59.277344 47.988281 59.171875 46.972656 59.21875 45.933594 C 59.238281 45.457031 59.492188 45.238281 59.964844 45.296875 C 60.835938 45.40625 61.707031 45.511719 62.582031 45.628906 C 62.746094 45.648438 62.910156 45.699219 63.066406 45.757812 C 63.199219 45.804688 63.269531 45.90625 63.261719 46.0625 C 63.25 46.25 63.25 46.4375 63.253906 46.625 C 63.28125 47.667969 63.222656 48.699219 62.882812 49.703125 C 62.832031 49.847656 62.820312 50.015625 62.824219 50.171875 C 62.832031 50.367188 62.898438 50.433594 63.085938 50.480469 C 64.070312 50.710938 65.054688 50.9375 66.039062 51.164062 C 66.222656 51.203125 66.296875 51.160156 66.292969 50.972656 C 66.285156 50.730469 66.261719 50.488281 66.203125 50.253906 C 65.972656 49.292969 65.84375 48.328125 65.851562 47.335938 C 65.867188 45.203125 65.855469 43.066406 65.855469 40.933594 C 65.855469 40.773438 65.863281 40.617188 65.875 40.40625 M 12.117188 47.527344 C 12.199219 47.15625 12.425781 46.945312 12.808594 46.898438 C 13.125 46.855469 13.4375 46.796875 13.753906 46.75 C 14.039062 46.710938 14.140625 46.753906 14.269531 47.019531 C 14.378906 47.253906 14.453125 47.507812 14.554688 47.75 C 14.71875 48.136719 14.851562 48.542969 15.066406 48.898438 C 15.410156 49.480469 15.957031 49.679688 16.609375 49.519531 C 17.351562 49.339844 17.832031 48.859375 18.109375 48.164062 C 18.261719 47.777344 18.167969 47.527344 17.769531 47.390625 C 17.265625 47.214844 16.957031 46.84375 16.683594 46.421875 C 16.542969 46.207031 16.523438 45.976562 16.625 45.753906 C 16.695312 45.59375 16.796875 45.441406 16.914062 45.3125 C 17.214844 44.988281 17.480469 44.640625 17.664062 44.234375 C 18.175781 43.101562 18.285156 41.925781 17.996094 40.722656 C 17.699219 39.488281 16.914062 38.679688 15.71875 38.261719 C 15.195312 38.078125 14.644531 38.003906 14.09375 38 C 12.605469 37.988281 11.113281 37.992188 9.625 37.996094 C 9.238281 37.996094 9.039062 38.203125 9.054688 38.589844 C 9.058594 38.757812 9.097656 38.925781 9.136719 39.089844 C 9.316406 39.890625 9.484375 40.699219 9.484375 41.527344 C 9.488281 43.671875 9.484375 45.816406 9.484375 47.957031 C 9.484375 48.089844 9.472656 48.21875 9.46875 48.351562 C 9.429688 49.019531 9.28125 49.664062 9.128906 50.3125 C 9.09375 50.472656 9.078125 50.648438 9.09375 50.808594 C 9.121094 51.046875 9.289062 51.15625 9.511719 51.105469 C 10.359375 50.902344 11.207031 50.699219 12.046875 50.484375 C 12.394531 50.394531 12.574219 50.082031 12.496094 49.722656 C 12.449219 49.515625 12.386719 49.308594 12.332031 49.101562 C 12.199219 48.601562 12.101562 48.097656 12.117188 47.527344 M 42.683594 43.679688 C 42.683594 42.78125 42.695312 41.882812 42.679688 40.984375 C 42.671875 40.300781 42.761719 39.640625 42.964844 38.992188 C 43.011719 38.839844 43.054688 38.6875 43.085938 38.53125 C 43.140625 38.242188 43.003906 38.058594 42.71875 38.007812 C 42.644531 37.996094 42.570312 37.996094 42.492188 37.996094 C 41.847656 37.992188 41.203125 37.996094 40.554688 37.996094 C 40.054688 37.992188 39.710938 38.214844 39.496094 38.675781 C 38.832031 40.101562 38.15625 41.519531 37.484375 42.941406 C 37.449219 43.019531 37.414062 43.097656 37.363281 43.164062 C 37.242188 43.328125 37.089844 43.328125 36.976562 43.164062 C 36.90625 43.066406 36.855469 42.953125 36.804688 42.84375 C 36.144531 41.445312 35.484375 40.050781 34.832031 38.652344 C 34.621094 38.199219 34.273438 37.992188 33.785156 37.992188 C 33.140625 37.996094 32.492188 37.996094 31.847656 37.996094 C 31.800781 37.996094 31.753906 37.992188 31.707031 37.996094 C 31.332031 38.019531 31.164062 38.242188 31.257812 38.601562 C 31.320312 38.835938 31.390625 39.070312 31.460938 39.304688 C 31.597656 39.753906 31.65625 40.21875 31.65625 40.6875 C 31.660156 42.175781 31.660156 43.664062 31.65625 45.152344 C 31.65625 45.625 31.589844 46.085938 31.453125 46.539062 C 31.382812 46.769531 31.304688 47.003906 31.25 47.238281 C 31.1875 47.515625 31.34375 47.71875 31.628906 47.746094 C 31.722656 47.753906 31.816406 47.746094 31.910156 47.742188 C 32.359375 47.722656 32.808594 47.695312 33.257812 47.6875 C 33.722656 47.679688 34.003906 47.402344 34 46.90625 C 33.980469 45.371094 33.992188 43.832031 33.992188 42.296875 C 33.992188 42.214844 33.988281 42.128906 33.996094 42.046875 C 34.003906 41.988281 34.035156 41.933594 34.074219 41.816406 C 34.167969 41.980469 34.234375 42.089844 34.289062 42.203125 C 34.832031 43.394531 35.398438 44.578125 35.90625 45.785156 C 36.175781 46.425781 36.582031 46.691406 37.269531 46.648438 C 37.796875 46.617188 38.148438 46.421875 38.367188 45.933594 C 38.925781 44.667969 39.503906 43.410156 40.078125 42.148438 C 40.121094 42.054688 40.1875 41.96875 40.242188 41.882812 C 40.269531 41.886719 40.292969 41.894531 40.316406 41.898438 C 40.328125 42.003906 40.34375 42.109375 40.34375 42.214844 C 40.34375 43.152344 40.339844 44.089844 40.34375 45.023438 C 40.347656 45.515625 40.277344 45.996094 40.125 46.460938 C 40.058594 46.675781 39.988281 46.890625 39.945312 47.109375 C 39.886719 47.421875 40.046875 47.617188 40.359375 47.648438 C 40.386719 47.652344 40.414062 47.648438 40.445312 47.652344 C 40.957031 47.667969 41.472656 47.6875 41.988281 47.707031 C 42.203125 47.714844 42.417969 47.742188 42.632812 47.742188 C 42.992188 47.742188 43.160156 47.523438 43.078125 47.171875 C 43.042969 47.035156 43 46.898438 42.957031 46.765625 C 42.761719 46.175781 42.667969 45.570312 42.683594 44.945312 C 42.691406 44.542969 42.683594 44.136719 42.683594 43.679688 M 25.960938 45.367188 C 25.546875 45.898438 24.984375 46.144531 24.324219 46.160156 C 23.351562 46.183594 22.714844 45.636719 22.523438 44.828125 C 22.464844 44.574219 22.433594 44.308594 22.433594 44.050781 C 22.421875 43.046875 22.425781 42.046875 22.429688 41.042969 C 22.429688 40.519531 22.492188 40 22.621094 39.488281 C 22.695312 39.179688 22.777344 38.871094 22.84375 38.5625 C 22.910156 38.257812 22.753906 38.046875 22.449219 38 C 22.375 37.992188 22.296875 37.992188 22.222656 37.992188 C 21.503906 37.992188 20.78125 37.992188 20.0625 37.996094 C 19.996094 37.996094 19.929688 37.992188 19.863281 37.996094 C 19.519531 38.023438 19.339844 38.242188 19.390625 38.585938 C 19.410156 38.695312 19.4375 38.804688 19.472656 38.910156 C 19.742188 39.824219 19.851562 40.757812 19.828125 41.710938 C 19.804688 42.601562 19.8125 43.492188 19.828125 44.378906 C 19.839844 44.796875 19.871094 45.222656 19.957031 45.632812 C 20.273438 47.21875 21.296875 48.203125 22.882812 48.4375 C 24.117188 48.621094 25.308594 48.433594 26.441406 47.90625 C 26.9375 47.675781 27.386719 47.367188 27.773438 46.980469 C 28.617188 46.136719 29.011719 45.097656 29.039062 43.917969 C 29.058594 42.851562 29.042969 41.785156 29.042969 40.71875 C 29.042969 40.265625 29.109375 39.824219 29.226562 39.386719 C 29.304688 39.109375 29.386719 38.828125 29.441406 38.546875 C 29.507812 38.234375 29.351562 38.039062 29.035156 38 C 28.972656 37.992188 28.90625 37.996094 28.839844 37.996094 C 28.101562 37.996094 27.363281 37.992188 26.621094 37.996094 C 26.539062 37.996094 26.453125 37.996094 26.371094 38.011719 C 26.097656 38.058594 25.964844 38.234375 25.996094 38.507812 C 26.011719 38.636719 26.050781 38.765625 26.085938 38.890625 C 26.238281 39.421875 26.410156 39.949219 26.410156 40.507812 C 26.414062 41.671875 26.417969 42.832031 26.414062 43.992188 C 26.414062 44.480469 26.273438 44.933594 25.960938 45.367188 M 30.273438 60.414062 C 31.222656 60.304688 32.117188 60.03125 32.980469 59.621094 C 33.5 59.378906 33.742188 58.992188 33.726562 58.421875 C 33.714844 58.046875 33.722656 57.671875 33.726562 57.296875 C 33.726562 56.804688 33.8125 56.332031 34.019531 55.882812 C 34.210938 55.46875 34.070312 55.25 33.621094 55.238281 C 33.601562 55.238281 33.582031 55.238281 33.5625 55.238281 C 32.925781 55.238281 32.292969 55.238281 31.65625 55.238281 C 31.5625 55.238281 31.464844 55.246094 31.375 55.265625 C 31.183594 55.316406 31.097656 55.445312 31.121094 55.644531 C 31.132812 55.714844 31.15625 55.789062 31.1875 55.855469 C 31.414062 56.34375 31.488281 56.855469 31.464844 57.386719 C 31.460938 57.550781 31.417969 57.6875 31.296875 57.785156 C 31.175781 57.882812 31.039062 57.976562 30.894531 58.027344 C 30.40625 58.207031 29.894531 58.273438 29.375 58.199219 C 28.480469 58.074219 27.765625 57.671875 27.34375 56.839844 C 26.835938 55.84375 27.042969 54.476562 27.816406 53.609375 C 27.878906 53.542969 27.9375 53.476562 28.003906 53.40625 C 27.789062 53.175781 27.59375 52.96875 27.347656 52.707031 C 27.515625 52.679688 27.609375 52.65625 27.703125 52.65625 C 28.460938 52.652344 29.222656 52.644531 29.980469 52.65625 C 30.785156 52.667969 31.480469 52.929688 32 53.578125 C 32.242188 53.875 32.480469 53.871094 32.730469 53.585938 C 33.050781 53.21875 33.359375 52.847656 33.671875 52.472656 C 34 52.082031 33.953125 51.738281 33.527344 51.460938 C 32.492188 50.796875 31.359375 50.457031 30.132812 50.449219 C 28.257812 50.4375 26.386719 50.445312 24.515625 50.449219 C 24.371094 50.449219 24.191406 50.402344 24.109375 50.566406 C 24.023438 50.75 24.183594 50.859375 24.289062 50.972656 C 24.671875 51.382812 25.0625 51.785156 25.453125 52.191406 C 25.5 52.246094 25.542969 52.304688 25.589844 52.363281 C 25.554688 52.414062 25.53125 52.453125 25.503906 52.488281 C 24.71875 53.472656 24.339844 54.597656 24.386719 55.851562 C 24.453125 57.613281 25.25 58.941406 26.796875 59.796875 C 27.863281 60.386719 29.023438 60.535156 30.273438 60.414062 M 46.058594 47.957031 C 46.171875 47.964844 46.28125 47.976562 46.394531 47.980469 C 46.8125 47.988281 47.089844 47.773438 47.183594 47.367188 C 47.214844 47.234375 47.230469 47.09375 47.265625 46.957031 C 47.363281 46.535156 47.640625 46.320312 48.074219 46.339844 C 48.34375 46.351562 48.617188 46.378906 48.886719 46.402344 C 49.628906 46.472656 50.375 46.535156 51.121094 46.617188 C 51.53125 46.660156 51.792969 46.9375 51.855469 47.34375 C 51.878906 47.511719 51.898438 47.675781 51.921875 47.84375 C 52 48.3125 52.285156 48.589844 52.753906 48.660156 C 53.089844 48.707031 53.421875 48.757812 53.753906 48.804688 C 54.132812 48.859375 54.511719 48.917969 54.894531 48.964844 C 55.195312 49 55.335938 48.820312 55.234375 48.535156 C 55.210938 48.464844 55.175781 48.398438 55.144531 48.332031 C 55.054688 48.15625 54.96875 47.980469 54.878906 47.804688 C 54.363281 46.792969 54.007812 45.714844 53.601562 44.660156 C 52.828125 42.671875 52.0625 40.683594 51.292969 38.695312 C 51.101562 38.203125 50.792969 37.996094 50.261719 37.996094 C 49.878906 37.992188 49.492188 38 49.109375 37.992188 C 48.589844 37.980469 48.25 38.222656 48.042969 38.699219 C 47.277344 40.476562 46.507812 42.25 45.730469 44.023438 C 45.269531 45.078125 44.835938 46.148438 44.195312 47.109375 C 44.136719 47.195312 44.082031 47.285156 44.039062 47.378906 C 43.949219 47.582031 44.027344 47.753906 44.246094 47.804688 C 44.371094 47.835938 44.503906 47.839844 44.636719 47.851562 C 45.09375 47.886719 45.550781 47.917969 46.058594 47.957031 M 39.691406 60.515625 C 40.160156 60.515625 40.628906 60.515625 41.09375 60.515625 C 41.460938 60.511719 41.824219 60.519531 42.191406 60.507812 C 42.574219 60.496094 42.730469 60.351562 42.777344 59.972656 C 42.789062 59.898438 42.792969 59.824219 42.792969 59.746094 C 42.792969 59.390625 42.792969 59.035156 42.792969 58.679688 C 42.792969 58.597656 42.789062 58.511719 42.773438 58.429688 C 42.71875 58.179688 42.539062 58.042969 42.285156 58.0625 C 42.195312 58.070312 42.101562 58.089844 42.011719 58.117188 C 41.085938 58.398438 40.136719 58.453125 39.175781 58.421875 C 39.121094 58.417969 39.0625 58.421875 39.011719 58.410156 C 38.816406 58.367188 38.761719 58.242188 38.871094 58.082031 C 38.917969 58.011719 38.980469 57.953125 39.039062 57.894531 C 39.507812 57.421875 39.984375 56.960938 40.445312 56.480469 C 40.816406 56.097656 41.175781 55.703125 41.515625 55.292969 C 41.886719 54.84375 42.191406 54.351562 42.371094 53.789062 C 42.734375 52.660156 42.335938 51.582031 41.316406 50.988281 C 41.050781 50.835938 40.761719 50.710938 40.46875 50.621094 C 39.519531 50.328125 38.550781 50.316406 37.582031 50.480469 C 36.703125 50.625 35.886719 50.941406 35.144531 51.441406 C 34.832031 51.65625 34.773438 52.011719 34.992188 52.320312 C 35 52.328125 35.003906 52.335938 35.011719 52.34375 C 35.351562 52.742188 35.683594 53.148438 36.03125 53.539062 C 36.257812 53.800781 36.484375 53.792969 36.722656 53.535156 C 36.738281 53.515625 36.757812 53.492188 36.777344 53.472656 C 37.308594 52.835938 38.011719 52.585938 38.816406 52.597656 C 39.636719 52.609375 39.976562 53.167969 39.632812 53.910156 C 39.445312 54.316406 39.167969 54.65625 38.863281 54.972656 C 37.8125 56.054688 36.769531 57.144531 35.703125 58.207031 C 35.183594 58.730469 35.105469 59.351562 35.191406 60.023438 C 35.21875 60.261719 35.382812 60.425781 35.621094 60.492188 C 35.71875 60.515625 35.824219 60.511719 35.929688 60.511719 C 37.164062 60.515625 38.398438 60.511719 39.691406 60.515625 M 45.367188 54.902344 C 45.335938 55.105469 45.28125 55.304688 45.273438 55.507812 C 45.265625 55.953125 45.5 56.175781 45.945312 56.179688 C 46.332031 56.183594 46.714844 56.175781 47.097656 56.183594 C 47.476562 56.195312 47.84375 56.253906 48.171875 56.457031 C 48.605469 56.726562 48.710938 57.132812 48.648438 57.601562 C 48.589844 58.03125 48.269531 58.199219 47.90625 58.3125 C 47.851562 58.332031 47.796875 58.351562 47.742188 58.355469 C 47.34375 58.371094 46.941406 58.40625 46.539062 58.394531 C 46.003906 58.378906 45.492188 58.226562 44.972656 58.097656 C 44.503906 57.984375 44.28125 58.164062 44.277344 58.652344 C 44.273438 59.054688 44.269531 59.457031 44.277344 59.859375 C 44.289062 60.324219 44.472656 60.507812 44.933594 60.511719 C 45.773438 60.515625 46.617188 60.515625 47.460938 60.507812 C 48.007812 60.503906 48.542969 60.410156 49.054688 60.226562 C 50.234375 59.796875 51.027344 59.035156 51.203125 57.738281 C 51.351562 56.660156 50.886719 55.671875 49.953125 55.113281 C 49.480469 54.828125 48.957031 54.691406 48.417969 54.605469 C 48.351562 54.59375 48.285156 54.566406 48.210938 54.546875 C 48.242188 54.332031 48.367188 54.203125 48.484375 54.070312 C 49.347656 53.058594 50.210938 52.050781 51.074219 51.039062 C 51.171875 50.925781 51.3125 50.816406 51.226562 50.648438 C 51.148438 50.5 50.980469 50.535156 50.84375 50.535156 C 48.980469 50.53125 47.121094 50.53125 45.257812 50.535156 C 44.75 50.535156 44.480469 50.753906 44.347656 51.242188 C 44.230469 51.667969 44.121094 52.089844 44.011719 52.515625 C 43.992188 52.589844 43.976562 52.664062 43.972656 52.738281 C 43.960938 52.964844 44.066406 53.070312 44.296875 53.046875 C 44.445312 53.03125 44.589844 52.988281 44.730469 52.941406 C 45.363281 52.734375 46.007812 52.65625 46.667969 52.695312 C 46.796875 52.703125 46.929688 52.695312 47.03125 52.804688 C 47.039062 52.984375 46.921875 53.085938 46.820312 53.191406 C 46.484375 53.542969 46.148438 53.894531 45.804688 54.238281 C 45.625 54.421875 45.480469 54.621094 45.367188 54.902344 M 55.058594 19.289062 C 55.085938 20.03125 55.261719 20.738281 55.636719 21.378906 C 56.375 22.648438 57.464844 23.324219 58.953125 23.3125 C 59.636719 23.304688 60.292969 23.144531 60.90625 22.855469 C 61.570312 22.539062 62.078125 22.058594 62.332031 21.347656 C 62.417969 21.097656 62.546875 20.878906 62.707031 20.664062 C 62.871094 20.445312 62.996094 20.183594 63.078125 19.917969 C 63.265625 19.3125 63.234375 18.699219 63.054688 18.09375 C 62.839844 17.375 62.476562 16.734375 61.96875 16.179688 C 61.5 15.664062 60.9375 15.285156 60.25 15.125 C 59.726562 15 59.191406 14.964844 58.660156 15.007812 C 57.625 15.09375 56.75 15.507812 56.070312 16.308594 C 55.351562 17.152344 55.039062 18.136719 55.058594 19.289062 M 36.222656 25.230469 C 36.203125 25.816406 36.1875 26.40625 36.171875 26.996094 C 36.160156 27.460938 36.140625 27.929688 36.128906 28.398438 C 36.125 28.660156 36.238281 28.808594 36.472656 28.824219 C 37.097656 28.863281 37.722656 28.890625 38.347656 28.910156 C 38.589844 28.914062 38.726562 28.769531 38.746094 28.527344 C 38.753906 28.453125 38.753906 28.378906 38.75 28.300781 C 38.714844 27.191406 38.703125 26.078125 38.632812 24.96875 C 38.59375 24.324219 38.480469 23.6875 38.359375 23.054688 C 38.300781 22.75 38.160156 22.457031 38.03125 22.164062 C 37.960938 22 37.816406 21.890625 37.628906 21.84375 C 37.226562 21.746094 36.894531 21.863281 36.707031 22.234375 C 36.597656 22.449219 36.511719 22.683594 36.472656 22.921875 C 36.355469 23.667969 36.222656 24.414062 36.222656 25.230469 M 42.550781 28.941406 C 42.980469 28.957031 43.410156 28.976562 43.839844 28.984375 C 44.140625 28.992188 44.277344 28.863281 44.277344 28.570312 C 44.289062 27.257812 44.269531 25.949219 44.042969 24.65625 C 43.96875 24.242188 43.871094 23.832031 43.660156 23.460938 C 43.566406 23.292969 43.449219 23.152344 43.261719 23.085938 C 42.796875 22.925781 42.371094 23.09375 42.15625 23.535156 C 42.09375 23.660156 42.042969 23.792969 42.019531 23.929688 C 41.9375 24.484375 41.828125 25.035156 41.800781 25.59375 C 41.746094 26.5625 41.742188 27.539062 41.71875 28.507812 C 41.710938 28.746094 41.839844 28.902344 42.078125 28.925781 C 42.214844 28.941406 42.355469 28.933594 42.550781 28.941406 M 31.613281 28.988281 C 32.136719 28.96875 32.660156 28.953125 33.183594 28.929688 C 33.488281 28.917969 33.621094 28.78125 33.617188 28.5 C 33.605469 27.773438 33.585938 27.042969 33.574219 26.3125 C 33.5625 25.582031 33.511719 24.855469 33.363281 24.140625 C 33.320312 23.941406 33.269531 23.738281 33.1875 23.550781 C 33.050781 23.238281 32.8125 23.046875 32.453125 23.035156 C 32.074219 23.019531 31.792969 23.167969 31.644531 23.515625 C 31.527344 23.800781 31.425781 24.09375 31.351562 24.390625 C 31.183594 25.09375 31.125 25.8125 31.09375 26.53125 C 31.066406 27.210938 31.0625 27.894531 31.058594 28.578125 C 31.058594 28.847656 31.179688 28.964844 31.449219 28.988281 C 31.488281 28.992188 31.523438 28.988281 31.613281 28.988281 M 37.445312 35.769531 C 37.921875 35.757812 38.402344 35.773438 38.875 35.726562 C 39.46875 35.664062 39.957031 35.378906 40.265625 34.847656 C 40.824219 33.890625 40.519531 32.203125 38.832031 32.023438 C 38.210938 31.957031 37.582031 31.992188 36.957031 31.992188 C 36.75 31.992188 36.707031 32.070312 36.746094 32.289062 C 36.789062 32.523438 36.855469 32.761719 36.875 33 C 36.898438 33.28125 36.886719 33.5625 36.882812 33.84375 C 36.871094 34.390625 36.933594 34.949219 36.742188 35.480469 C 36.738281 35.5 36.734375 35.519531 36.734375 35.535156 C 36.722656 35.691406 36.761719 35.75 36.914062 35.761719 C 37.070312 35.773438 37.230469 35.765625 37.445312 35.769531 M 28.109375 34.101562 C 28.078125 34.042969 28.046875 33.984375 28.015625 33.929688 C 27.84375 33.609375 27.851562 33.523438 28.097656 33.257812 C 28.402344 32.929688 28.71875 32.613281 29.03125 32.289062 C 29.097656 32.21875 29.160156 32.140625 29.261719 32.023438 C 29.117188 32.007812 29.039062 31.992188 28.957031 31.988281 C 28.78125 31.984375 28.601562 32 28.425781 31.984375 C 28.105469 31.960938 27.882812 32.082031 27.691406 32.347656 C 27.433594 32.699219 27.132812 33.023438 26.847656 33.359375 C 26.8125 33.398438 26.753906 33.425781 26.679688 33.476562 C 26.679688 33.203125 26.660156 32.96875 26.6875 32.738281 C 26.714844 32.5 26.785156 32.273438 26.851562 31.992188 C 26.378906 31.996094 25.953125 31.949219 25.503906 32.027344 C 25.527344 32.136719 25.535156 32.207031 25.558594 32.277344 C 25.65625 32.554688 25.6875 32.839844 25.683594 33.132812 C 25.675781 33.65625 25.691406 34.179688 25.675781 34.703125 C 25.667969 34.953125 25.605469 35.199219 25.566406 35.445312 C 25.550781 35.535156 25.527344 35.621094 25.511719 35.707031 C 25.734375 35.78125 26.539062 35.792969 26.839844 35.71875 C 26.8125 35.589844 26.796875 35.449219 26.746094 35.328125 C 26.589844 34.984375 26.730469 34.734375 26.972656 34.507812 C 27.097656 34.394531 27.175781 34.402344 27.261719 34.550781 C 27.375 34.753906 27.46875 34.96875 27.59375 35.164062 C 27.699219 35.328125 27.824219 35.488281 27.972656 35.609375 C 28.320312 35.898438 28.871094 35.78125 29.054688 35.402344 C 29.148438 35.210938 29.121094 35.152344 28.941406 35.039062 C 28.816406 34.960938 28.683594 34.878906 28.589844 34.769531 C 28.425781 34.570312 28.285156 34.347656 28.109375 34.101562 M 32.421875 33.015625 C 32.480469 32.792969 32.480469 32.789062 32.691406 32.789062 C 33.179688 32.785156 33.664062 32.769531 34.144531 32.882812 C 34.363281 32.929688 34.417969 32.863281 34.375 32.644531 C 34.351562 32.535156 34.316406 32.425781 34.285156 32.320312 C 34.207031 32.050781 34.132812 31.992188 33.84375 31.988281 C 33.085938 31.984375 32.328125 31.984375 31.570312 31.988281 C 31.273438 31.992188 31.226562 32.054688 31.316406 32.351562 C 31.402344 32.644531 31.433594 32.9375 31.429688 33.238281 C 31.425781 33.453125 31.429688 33.667969 31.429688 33.882812 C 31.417969 34.425781 31.484375 34.972656 31.289062 35.496094 C 31.28125 35.511719 31.277344 35.53125 31.277344 35.550781 C 31.261719 35.675781 31.320312 35.75 31.445312 35.761719 C 31.519531 35.769531 31.59375 35.765625 31.667969 35.769531 C 32.339844 35.769531 33.015625 35.769531 33.6875 35.769531 C 34.25 35.765625 34.25 35.765625 34.394531 35.230469 C 34.519531 34.769531 34.5 34.742188 34.046875 34.867188 C 33.597656 34.992188 33.140625 34.96875 32.679688 34.96875 C 32.570312 34.96875 32.484375 34.925781 32.441406 34.8125 C 32.320312 34.488281 32.460938 34.273438 32.800781 34.269531 C 33.097656 34.265625 33.398438 34.265625 33.699219 34.265625 C 33.851562 34.269531 33.980469 34.226562 34.042969 34.078125 C 34.089844 33.957031 34.128906 33.828125 34.148438 33.703125 C 34.175781 33.558594 34.117188 33.5 33.964844 33.484375 C 33.902344 33.476562 33.835938 33.480469 33.769531 33.480469 C 33.421875 33.480469 33.078125 33.484375 32.730469 33.480469 C 32.496094 33.476562 32.441406 33.414062 32.421875 33.175781 C 32.417969 33.140625 32.421875 33.101562 32.421875 33.015625 M 46.097656 34.820312 C 45.785156 34.070312 45.46875 33.320312 45.15625 32.570312 C 44.90625 31.980469 44.949219 31.984375 44.242188 31.984375 C 43.992188 31.984375 43.847656 32.089844 43.753906 32.320312 C 43.539062 32.851562 43.3125 33.375 43.078125 33.894531 C 42.832031 34.4375 42.570312 34.976562 42.316406 35.515625 C 42.289062 35.570312 42.28125 35.632812 42.257812 35.71875 C 42.347656 35.738281 42.417969 35.761719 42.488281 35.765625 C 42.644531 35.773438 42.804688 35.769531 42.964844 35.765625 C 43.355469 35.765625 43.382812 35.746094 43.492188 35.375 C 43.550781 35.179688 43.628906 35.109375 43.828125 35.105469 C 44.195312 35.097656 44.558594 35.097656 44.925781 35.105469 C 45.113281 35.109375 45.183594 35.179688 45.226562 35.371094 C 45.238281 35.425781 45.242188 35.480469 45.257812 35.535156 C 45.289062 35.667969 45.378906 35.757812 45.511719 35.757812 C 45.8125 35.765625 46.109375 35.757812 46.410156 35.753906 C 46.441406 35.75 46.472656 35.714844 46.527344 35.683594 C 46.386719 35.40625 46.253906 35.132812 46.097656 34.820312 M 49.753906 35.378906 C 49.71875 35.167969 49.667969 34.957031 49.660156 34.746094 C 49.648438 34.191406 49.660156 33.640625 49.65625 33.089844 C 49.652344 32.816406 49.679688 32.550781 49.773438 32.289062 C 49.804688 32.207031 49.808594 32.117188 49.832031 31.988281 C 49.433594 31.988281 49.082031 31.984375 48.726562 31.988281 C 48.492188 31.992188 48.460938 32.027344 48.539062 32.261719 C 48.644531 32.566406 48.667969 32.878906 48.664062 33.199219 C 48.660156 33.703125 48.675781 34.210938 48.660156 34.714844 C 48.652344 34.953125 48.59375 35.191406 48.554688 35.429688 C 48.539062 35.527344 48.519531 35.625 48.492188 35.765625 C 48.957031 35.765625 49.378906 35.777344 49.839844 35.757812 C 49.808594 35.617188 49.789062 35.519531 49.753906 35.378906 Z M 49.753906 35.378906 " fill-opacity="1" fill-rule="nonzero"/><path fill="#1198a8" d="M 65.003906 34.9375 C 65.058594 35.5625 64.8125 35.773438 64.238281 35.742188 C 63.902344 35.726562 63.566406 35.746094 63.230469 35.765625 C 62.882812 35.785156 62.617188 35.554688 62.621094 35.164062 C 62.628906 33.890625 62.609375 32.617188 62.601562 31.34375 C 62.597656 31.253906 62.601562 31.160156 62.601562 31.097656 C 61.792969 30.878906 61.023438 30.671875 60.226562 30.453125 C 60.226562 30.558594 60.226562 30.660156 60.226562 30.761719 C 60.226562 32.195312 60.226562 33.625 60.230469 35.058594 C 60.230469 35.125 60.230469 35.191406 60.226562 35.257812 C 60.207031 35.523438 60.03125 35.722656 59.765625 35.730469 C 59.296875 35.753906 58.828125 35.761719 58.363281 35.753906 C 58.035156 35.75 57.859375 35.550781 57.851562 35.207031 C 57.84375 34.617188 57.839844 34.027344 57.835938 33.4375 C 57.832031 32.121094 57.824219 30.800781 57.824219 29.480469 C 57.824219 29.324219 57.785156 29.226562 57.636719 29.144531 C 55.773438 28.097656 54.023438 26.878906 52.316406 25.59375 C 51.425781 24.925781 50.542969 24.246094 49.683594 23.539062 C 49.171875 23.117188 48.707031 22.636719 48.222656 22.183594 C 47.796875 21.785156 47.351562 21.414062 46.839844 21.128906 C 46.019531 20.675781 45.269531 20.109375 44.496094 19.589844 C 43.257812 18.757812 41.933594 18.113281 40.488281 17.738281 C 39.117188 17.382812 37.734375 17.324219 36.335938 17.503906 C 34.84375 17.691406 33.433594 18.152344 32.085938 18.792969 C 29.925781 19.824219 27.832031 20.972656 25.941406 22.449219 C 24.792969 23.347656 23.691406 24.308594 22.574219 25.246094 C 21.667969 26.007812 20.746094 26.738281 19.730469 27.347656 C 19.199219 27.664062 18.675781 27.996094 18.144531 28.304688 C 17.96875 28.40625 17.898438 28.523438 17.898438 28.726562 C 17.894531 30.527344 17.878906 32.324219 17.867188 34.121094 C 17.867188 34.476562 17.867188 34.832031 17.863281 35.1875 C 17.859375 35.558594 17.660156 35.757812 17.285156 35.757812 C 16.875 35.757812 16.460938 35.75 16.050781 35.738281 C 15.667969 35.726562 15.480469 35.550781 15.476562 35.164062 C 15.46875 34.621094 15.480469 34.078125 15.480469 33.535156 C 15.484375 32.347656 15.488281 31.160156 15.492188 29.96875 C 15.492188 29.933594 15.484375 29.898438 15.480469 29.863281 C 14.703125 30.113281 13.933594 30.359375 13.132812 30.613281 C 13.121094 30.792969 13.105469 30.996094 13.101562 31.199219 C 13.097656 32.484375 13.09375 33.765625 13.089844 35.046875 C 13.089844 35.113281 13.089844 35.179688 13.085938 35.246094 C 13.066406 35.546875 12.890625 35.75 12.59375 35.753906 C 12.117188 35.761719 11.640625 35.753906 11.164062 35.730469 C 10.882812 35.714844 10.710938 35.507812 10.703125 35.191406 C 10.695312 34.828125 10.703125 34.460938 10.707031 34.097656 C 10.710938 33.105469 10.71875 32.113281 10.722656 31.121094 C 10.722656 31.066406 10.707031 31.011719 10.695312 30.9375 C 10.480469 30.949219 10.277344 30.960938 10.074219 30.972656 C 9.691406 30.996094 9.308594 31.023438 8.925781 31.039062 C 8.574219 31.050781 8.378906 30.875 8.359375 30.523438 C 8.332031 30.085938 8.320312 29.644531 8.316406 29.203125 C 8.3125 28.863281 8.511719 28.679688 8.855469 28.652344 C 9.582031 28.597656 10.3125 28.558594 11.039062 28.480469 C 12.488281 28.320312 13.890625 27.976562 15.195312 27.292969 C 15.382812 27.195312 15.46875 27.089844 15.464844 26.863281 C 15.445312 26.21875 15.457031 25.574219 15.457031 24.925781 C 15.457031 24.8125 15.445312 24.703125 15.449219 24.589844 C 15.480469 23.945312 15.179688 23.457031 14.699219 23.066406 C 14.472656 22.882812 14.242188 22.707031 14.007812 22.535156 C 13.273438 22.003906 12.800781 21.300781 12.613281 20.402344 C 12.476562 19.726562 12.289062 19.058594 12.167969 18.378906 C 12.066406 17.808594 11.976562 17.230469 12.074219 16.648438 C 12.085938 16.5625 12.101562 16.480469 12.125 16.402344 C 12.246094 16.015625 12.527344 15.859375 12.910156 15.957031 C 13.050781 15.996094 13.128906 16.097656 13.160156 16.230469 C 13.230469 16.53125 13.316406 16.832031 13.359375 17.132812 C 13.472656 17.925781 13.703125 18.6875 14.015625 19.417969 C 14.15625 19.742188 14.367188 20.035156 14.582031 20.316406 C 14.691406 20.460938 14.863281 20.566406 15.027344 20.648438 C 15.21875 20.742188 15.382812 20.660156 15.445312 20.453125 C 15.488281 20.304688 15.511719 20.140625 15.503906 19.984375 C 15.464844 19.332031 15.398438 18.679688 15.375 18.023438 C 15.355469 17.472656 15.371094 16.921875 15.394531 16.371094 C 15.40625 16.046875 15.53125 15.75 15.714844 15.480469 C 15.917969 15.183594 16.292969 15.0625 16.632812 15.183594 C 16.847656 15.261719 16.96875 15.425781 17.015625 15.636719 C 17.101562 16.027344 17.191406 16.421875 17.246094 16.820312 C 17.335938 17.457031 17.378906 18.105469 17.480469 18.742188 C 17.53125 19.050781 17.644531 19.355469 17.769531 19.644531 C 17.875 19.890625 18.074219 20.066406 18.355469 20.125 C 18.648438 20.1875 18.859375 20.121094 19 19.859375 C 19.113281 19.648438 19.214844 19.417969 19.261719 19.183594 C 19.359375 18.6875 19.421875 18.1875 19.492188 17.6875 C 19.53125 17.417969 19.5625 17.148438 19.59375 16.878906 C 19.628906 16.546875 19.78125 16.257812 19.929688 15.964844 C 19.949219 15.921875 19.976562 15.882812 20.003906 15.84375 C 20.167969 15.636719 20.332031 15.613281 20.527344 15.789062 C 20.730469 15.976562 20.890625 16.207031 20.945312 16.476562 C 21.019531 16.839844 21.085938 17.210938 21.101562 17.582031 C 21.136719 18.496094 21.035156 19.398438 20.835938 20.285156 C 20.730469 20.761719 20.492188 21.175781 20.203125 21.558594 C 19.757812 22.144531 19.222656 22.640625 18.621094 23.0625 C 18.183594 23.367188 17.972656 23.804688 17.914062 24.316406 C 17.882812 24.585938 17.878906 24.859375 17.867188 25.128906 C 17.863281 25.285156 17.867188 25.441406 17.867188 25.648438 C 17.988281 25.582031 18.078125 25.539062 18.164062 25.492188 C 19.28125 24.867188 20.269531 24.0625 21.242188 23.242188 C 22.277344 22.367188 23.3125 21.484375 24.371094 20.636719 C 25.886719 19.417969 27.570312 18.453125 29.273438 17.527344 C 30.617188 16.800781 31.996094 16.148438 33.457031 15.695312 C 35.273438 15.132812 37.132812 14.894531 39.027344 15.066406 C 40.800781 15.230469 42.472656 15.75 44.058594 16.558594 C 44.867188 16.972656 45.632812 17.457031 46.382812 17.972656 C 46.878906 18.320312 47.382812 18.664062 47.90625 18.972656 C 48.609375 19.390625 49.277344 19.859375 49.851562 20.441406 C 51.144531 21.738281 52.597656 22.84375 54.070312 23.925781 C 55.6875 25.109375 57.332031 26.25 59.089844 27.21875 C 59.984375 27.710938 60.902344 28.152344 61.886719 28.449219 C 62.417969 28.609375 62.957031 28.699219 63.515625 28.707031 C 64.480469 28.71875 65.445312 28.742188 66.40625 28.761719 C 66.785156 28.769531 66.964844 28.933594 66.980469 29.304688 C 67 29.722656 67.015625 30.144531 67.019531 30.566406 C 67.027344 30.949219 66.851562 31.136719 66.460938 31.148438 C 66.085938 31.15625 65.710938 31.140625 65.335938 31.136719 C 65.234375 31.136719 65.132812 31.136719 65.003906 31.136719 C 65.003906 32.410156 65.003906 33.660156 65.003906 34.9375 Z M 65.003906 34.9375 " fill-opacity="1" fill-rule="nonzero"/><path fill="#1198a8" d="M 65.871094 40.433594 C 65.863281 40.617188 65.855469 40.773438 65.855469 40.933594 C 65.855469 43.066406 65.867188 45.203125 65.851562 47.335938 C 65.84375 48.328125 65.972656 49.292969 66.203125 50.253906 C 66.261719 50.488281 66.285156 50.730469 66.292969 50.972656 C 66.296875 51.160156 66.222656 51.203125 66.039062 51.164062 C 65.054688 50.9375 64.070312 50.710938 63.085938 50.480469 C 62.898438 50.433594 62.832031 50.367188 62.824219 50.171875 C 62.820312 50.015625 62.832031 49.847656 62.882812 49.703125 C 63.222656 48.699219 63.28125 47.667969 63.253906 46.625 C 63.25 46.4375 63.25 46.25 63.261719 46.0625 C 63.269531 45.90625 63.199219 45.804688 63.066406 45.757812 C 62.910156 45.699219 62.746094 45.648438 62.582031 45.628906 C 61.707031 45.511719 60.835938 45.40625 59.964844 45.296875 C 59.492188 45.238281 59.238281 45.457031 59.21875 45.933594 C 59.171875 46.972656 59.277344 47.988281 59.574219 48.988281 C 59.617188 49.128906 59.644531 49.277344 59.65625 49.425781 C 59.671875 49.710938 59.613281 49.761719 59.332031 49.714844 C 58.898438 49.644531 58.464844 49.5625 58.035156 49.488281 C 57.515625 49.398438 57 49.308594 56.484375 49.21875 C 56.222656 49.171875 56.164062 49.113281 56.179688 48.847656 C 56.191406 48.691406 56.226562 48.535156 56.273438 48.382812 C 56.425781 47.890625 56.570312 47.398438 56.601562 46.878906 C 56.609375 46.757812 56.617188 46.636719 56.617188 46.515625 C 56.621094 44.597656 56.621094 42.675781 56.617188 40.757812 C 56.617188 40.144531 56.488281 39.550781 56.316406 38.964844 C 56.253906 38.753906 56.203125 38.53125 56.183594 38.308594 C 56.160156 38.050781 56.226562 37.996094 56.488281 37.996094 C 57.441406 37.992188 58.398438 37.992188 59.351562 37.996094 C 59.59375 37.996094 59.65625 38.050781 59.65625 38.289062 C 59.652344 38.4375 59.632812 38.59375 59.585938 38.730469 C 59.28125 39.617188 59.15625 40.527344 59.214844 41.464844 C 59.226562 41.660156 59.214844 41.855469 59.21875 42.054688 C 59.234375 42.515625 59.476562 42.78125 59.9375 42.820312 C 60.820312 42.898438 61.707031 42.972656 62.59375 43.039062 C 62.734375 43.050781 62.875 43.046875 63.011719 43.023438 C 63.152344 43 63.253906 42.914062 63.25 42.753906 C 63.230469 41.828125 63.316406 40.898438 63.15625 39.980469 C 63.09375 39.605469 62.980469 39.234375 62.898438 38.863281 C 62.859375 38.679688 62.820312 38.496094 62.816406 38.308594 C 62.8125 38.054688 62.882812 37.996094 63.132812 37.996094 C 64.089844 37.992188 65.042969 37.992188 66 37.996094 C 66.242188 37.996094 66.300781 38.042969 66.296875 38.292969 C 66.292969 38.488281 66.265625 38.683594 66.222656 38.875 C 66.113281 39.386719 65.992188 39.898438 65.871094 40.433594 Z M 65.871094 40.433594 " fill-opacity="1" fill-rule="nonzero"/><path fill="#1198a8" d="M 12.113281 47.550781 C 12.101562 48.097656 12.199219 48.601562 12.332031 49.101562 C 12.386719 49.308594 12.449219 49.515625 12.496094 49.722656 C 12.574219 50.082031 12.394531 50.394531 12.046875 50.484375 C 11.207031 50.699219 10.359375 50.902344 9.511719 51.105469 C 9.289062 51.15625 9.121094 51.046875 9.09375 50.808594 C 9.078125 50.648438 9.09375 50.472656 9.128906 50.3125 C 9.28125 49.664062 9.429688 49.019531 9.46875 48.351562 C 9.472656 48.21875 9.484375 48.089844 9.484375 47.957031 C 9.484375 45.816406 9.488281 43.671875 9.484375 41.527344 C 9.484375 40.699219 9.316406 39.890625 9.136719 39.089844 C 9.097656 38.925781 9.058594 38.757812 9.054688 38.589844 C 9.039062 38.203125 9.238281 37.996094 9.625 37.996094 C 11.113281 37.992188 12.605469 37.988281 14.09375 38 C 14.644531 38.003906 15.195312 38.078125 15.71875 38.261719 C 16.914062 38.679688 17.699219 39.488281 17.996094 40.722656 C 18.285156 41.925781 18.175781 43.101562 17.664062 44.234375 C 17.480469 44.640625 17.214844 44.988281 16.914062 45.3125 C 16.796875 45.441406 16.695312 45.59375 16.625 45.753906 C 16.523438 45.976562 16.542969 46.207031 16.683594 46.421875 C 16.957031 46.84375 17.265625 47.214844 17.769531 47.390625 C 18.167969 47.527344 18.261719 47.777344 18.109375 48.164062 C 17.832031 48.859375 17.351562 49.339844 16.609375 49.519531 C 15.957031 49.679688 15.410156 49.480469 15.066406 48.898438 C 14.851562 48.542969 14.71875 48.136719 14.554688 47.75 C 14.453125 47.507812 14.378906 47.253906 14.269531 47.019531 C 14.140625 46.753906 14.039062 46.710938 13.753906 46.75 C 13.4375 46.796875 13.125 46.855469 12.808594 46.898438 C 12.425781 46.945312 12.199219 47.15625 12.113281 47.550781 M 13.324219 40.546875 C 13.15625 40.554688 12.988281 40.558594 12.820312 40.566406 C 12.449219 40.582031 12.230469 40.753906 12.136719 41.113281 C 12.113281 41.203125 12.097656 41.296875 12.097656 41.390625 C 12.09375 42.128906 12.097656 42.867188 12.097656 43.609375 C 12.097656 43.683594 12.105469 43.757812 12.121094 43.832031 C 12.191406 44.199219 12.398438 44.359375 12.773438 44.332031 C 13.203125 44.292969 13.628906 44.253906 14.058594 44.195312 C 14.722656 44.101562 15.242188 43.792969 15.496094 43.136719 C 15.6875 42.632812 15.714844 42.113281 15.582031 41.59375 C 15.4375 41.011719 15.074219 40.628906 14.46875 40.554688 C 14.109375 40.511719 13.742188 40.546875 13.324219 40.546875 Z M 13.324219 40.546875 " fill-opacity="1" fill-rule="nonzero"/><path fill="#1299a8" d="M 42.683594 43.707031 C 42.683594 44.136719 42.691406 44.542969 42.683594 44.945312 C 42.667969 45.570312 42.761719 46.175781 42.957031 46.765625 C 43 46.898438 43.042969 47.035156 43.078125 47.171875 C 43.160156 47.523438 42.992188 47.742188 42.632812 47.742188 C 42.417969 47.742188 42.203125 47.714844 41.988281 47.707031 C 41.472656 47.6875 40.957031 47.667969 40.445312 47.652344 C 40.414062 47.648438 40.386719 47.652344 40.359375 47.648438 C 40.046875 47.617188 39.886719 47.421875 39.945312 47.109375 C 39.988281 46.890625 40.058594 46.675781 40.125 46.460938 C 40.277344 45.996094 40.347656 45.515625 40.34375 45.023438 C 40.339844 44.089844 40.34375 43.152344 40.34375 42.214844 C 40.34375 42.109375 40.328125 42.003906 40.316406 41.898438 C 40.292969 41.894531 40.269531 41.886719 40.242188 41.882812 C 40.1875 41.96875 40.121094 42.054688 40.078125 42.148438 C 39.503906 43.410156 38.925781 44.667969 38.367188 45.933594 C 38.148438 46.421875 37.796875 46.617188 37.269531 46.648438 C 36.582031 46.691406 36.175781 46.425781 35.90625 45.785156 C 35.398438 44.578125 34.832031 43.394531 34.289062 42.203125 C 34.234375 42.089844 34.167969 41.980469 34.074219 41.816406 C 34.035156 41.933594 34.003906 41.988281 33.996094 42.046875 C 33.988281 42.128906 33.992188 42.214844 33.992188 42.296875 C 33.992188 43.832031 33.980469 45.371094 34 46.90625 C 34.003906 47.402344 33.722656 47.679688 33.257812 47.6875 C 32.808594 47.695312 32.359375 47.722656 31.910156 47.742188 C 31.816406 47.746094 31.722656 47.753906 31.628906 47.746094 C 31.34375 47.71875 31.1875 47.515625 31.25 47.238281 C 31.304688 47.003906 31.382812 46.769531 31.453125 46.539062 C 31.589844 46.085938 31.65625 45.625 31.65625 45.152344 C 31.660156 43.664062 31.660156 42.175781 31.65625 40.6875 C 31.65625 40.21875 31.597656 39.753906 31.460938 39.304688 C 31.390625 39.070312 31.320312 38.835938 31.257812 38.601562 C 31.164062 38.242188 31.332031 38.019531 31.707031 37.996094 C 31.753906 37.992188 31.800781 37.996094 31.847656 37.996094 C 32.492188 37.996094 33.140625 37.996094 33.785156 37.992188 C 34.273438 37.992188 34.621094 38.199219 34.832031 38.652344 C 35.484375 40.050781 36.144531 41.445312 36.804688 42.84375 C 36.855469 42.953125 36.90625 43.066406 36.976562 43.164062 C 37.089844 43.328125 37.242188 43.328125 37.363281 43.164062 C 37.414062 43.097656 37.449219 43.019531 37.484375 42.941406 C 38.15625 41.519531 38.832031 40.101562 39.496094 38.675781 C 39.710938 38.214844 40.054688 37.992188 40.554688 37.996094 C 41.203125 37.996094 41.847656 37.992188 42.492188 37.996094 C 42.570312 37.996094 42.644531 37.996094 42.71875 38.007812 C 43.003906 38.058594 43.140625 38.242188 43.085938 38.53125 C 43.054688 38.6875 43.011719 38.839844 42.964844 38.992188 C 42.761719 39.640625 42.671875 40.300781 42.679688 40.984375 C 42.695312 41.882812 42.683594 42.78125 42.683594 43.707031 Z M 42.683594 43.707031 " fill-opacity="1" fill-rule="nonzero"/><path fill="#1299a8" d="M 25.972656 45.351562 C 26.273438 44.933594 26.414062 44.480469 26.414062 43.992188 C 26.417969 42.832031 26.414062 41.671875 26.410156 40.507812 C 26.410156 39.949219 26.238281 39.421875 26.085938 38.890625 C 26.050781 38.765625 26.011719 38.636719 25.996094 38.507812 C 25.964844 38.234375 26.097656 38.058594 26.371094 38.011719 C 26.453125 37.996094 26.539062 37.996094 26.621094 37.996094 C 27.363281 37.992188 28.101562 37.996094 28.839844 37.996094 C 28.90625 37.996094 28.972656 37.992188 29.035156 38 C 29.351562 38.039062 29.507812 38.234375 29.441406 38.546875 C 29.386719 38.828125 29.304688 39.109375 29.226562 39.386719 C 29.109375 39.824219 29.042969 40.265625 29.042969 40.71875 C 29.042969 41.785156 29.058594 42.851562 29.039062 43.917969 C 29.011719 45.097656 28.617188 46.136719 27.773438 46.980469 C 27.386719 47.367188 26.9375 47.675781 26.441406 47.90625 C 25.308594 48.433594 24.117188 48.621094 22.882812 48.4375 C 21.296875 48.203125 20.273438 47.21875 19.957031 45.632812 C 19.871094 45.222656 19.839844 44.796875 19.828125 44.378906 C 19.8125 43.492188 19.804688 42.601562 19.828125 41.710938 C 19.851562 40.757812 19.742188 39.824219 19.472656 38.910156 C 19.4375 38.804688 19.410156 38.695312 19.390625 38.585938 C 19.339844 38.242188 19.519531 38.023438 19.863281 37.996094 C 19.929688 37.992188 19.996094 37.996094 20.0625 37.996094 C 20.78125 37.992188 21.503906 37.992188 22.222656 37.992188 C 22.296875 37.992188 22.375 37.992188 22.449219 38 C 22.753906 38.046875 22.910156 38.257812 22.84375 38.5625 C 22.777344 38.871094 22.695312 39.179688 22.621094 39.488281 C 22.492188 40 22.429688 40.519531 22.429688 41.042969 C 22.425781 42.046875 22.421875 43.046875 22.433594 44.050781 C 22.433594 44.308594 22.464844 44.574219 22.523438 44.828125 C 22.714844 45.636719 23.351562 46.183594 24.324219 46.160156 C 24.984375 46.144531 25.546875 45.898438 25.972656 45.351562 Z M 25.972656 45.351562 " fill-opacity="1" fill-rule="nonzero"/><path fill="#1299a8" d="M 30.25 60.421875 C 29.023438 60.535156 27.863281 60.386719 26.796875 59.796875 C 25.25 58.941406 24.453125 57.613281 24.386719 55.851562 C 24.339844 54.597656 24.71875 53.472656 25.503906 52.488281 C 25.53125 52.453125 25.554688 52.414062 25.589844 52.363281 C 25.542969 52.304688 25.5 52.246094 25.453125 52.191406 C 25.0625 51.785156 24.671875 51.382812 24.289062 50.972656 C 24.183594 50.859375 24.023438 50.75 24.109375 50.566406 C 24.191406 50.402344 24.371094 50.449219 24.515625 50.449219 C 26.386719 50.445312 28.257812 50.4375 30.132812 50.449219 C 31.359375 50.457031 32.492188 50.796875 33.527344 51.460938 C 33.953125 51.738281 34 52.082031 33.671875 52.472656 C 33.359375 52.847656 33.050781 53.21875 32.730469 53.585938 C 32.480469 53.871094 32.242188 53.875 32 53.578125 C 31.480469 52.929688 30.785156 52.667969 29.980469 52.65625 C 29.222656 52.644531 28.460938 52.652344 27.703125 52.65625 C 27.609375 52.65625 27.515625 52.679688 27.347656 52.707031 C 27.59375 52.96875 27.789062 53.175781 28.003906 53.40625 C 27.9375 53.476562 27.878906 53.542969 27.816406 53.609375 C 27.042969 54.476562 26.835938 55.84375 27.34375 56.839844 C 27.765625 57.671875 28.480469 58.074219 29.375 58.199219 C 29.894531 58.273438 30.40625 58.207031 30.894531 58.027344 C 31.039062 57.976562 31.175781 57.882812 31.296875 57.785156 C 31.417969 57.6875 31.460938 57.550781 31.464844 57.386719 C 31.488281 56.855469 31.414062 56.34375 31.1875 55.855469 C 31.15625 55.789062 31.132812 55.714844 31.121094 55.644531 C 31.097656 55.445312 31.183594 55.316406 31.375 55.265625 C 31.464844 55.246094 31.5625 55.238281 31.65625 55.238281 C 32.292969 55.238281 32.925781 55.238281 33.5625 55.238281 C 33.582031 55.238281 33.601562 55.238281 33.621094 55.238281 C 34.070312 55.25 34.210938 55.46875 34.019531 55.882812 C 33.8125 56.332031 33.726562 56.804688 33.726562 57.296875 C 33.722656 57.671875 33.714844 58.046875 33.726562 58.421875 C 33.742188 58.992188 33.5 59.378906 32.980469 59.621094 C 32.117188 60.03125 31.222656 60.304688 30.25 60.421875 Z M 30.25 60.421875 " fill-opacity="1" fill-rule="nonzero"/><path fill="#1299a8" d="M 46.035156 47.957031 C 45.550781 47.917969 45.09375 47.886719 44.636719 47.851562 C 44.503906 47.839844 44.371094 47.835938 44.246094 47.804688 C 44.027344 47.753906 43.949219 47.582031 44.039062 47.378906 C 44.082031 47.285156 44.136719 47.195312 44.195312 47.109375 C 44.835938 46.148438 45.269531 45.078125 45.730469 44.023438 C 46.507812 42.25 47.277344 40.476562 48.042969 38.699219 C 48.25 38.222656 48.589844 37.980469 49.109375 37.992188 C 49.492188 38 49.878906 37.992188 50.261719 37.996094 C 50.792969 37.996094 51.101562 38.203125 51.292969 38.695312 C 52.0625 40.683594 52.828125 42.671875 53.601562 44.660156 C 54.007812 45.714844 54.363281 46.792969 54.878906 47.804688 C 54.96875 47.980469 55.054688 48.15625 55.144531 48.332031 C 55.175781 48.398438 55.210938 48.464844 55.234375 48.535156 C 55.335938 48.820312 55.195312 49 54.894531 48.964844 C 54.511719 48.917969 54.132812 48.859375 53.753906 48.804688 C 53.421875 48.757812 53.089844 48.707031 52.753906 48.660156 C 52.285156 48.589844 52 48.3125 51.921875 47.84375 C 51.898438 47.675781 51.878906 47.511719 51.855469 47.34375 C 51.792969 46.9375 51.53125 46.660156 51.121094 46.617188 C 50.375 46.535156 49.628906 46.472656 48.886719 46.402344 C 48.617188 46.378906 48.34375 46.351562 48.074219 46.339844 C 47.640625 46.320312 47.363281 46.535156 47.265625 46.957031 C 47.230469 47.09375 47.214844 47.234375 47.183594 47.367188 C 47.089844 47.773438 46.8125 47.988281 46.394531 47.980469 C 46.28125 47.976562 46.171875 47.964844 46.035156 47.957031 M 50.195312 42.359375 C 50.085938 42.050781 49.976562 41.742188 49.863281 41.4375 C 49.832031 41.359375 49.804688 41.277344 49.761719 41.207031 C 49.664062 41.054688 49.554688 41.050781 49.460938 41.199219 C 49.410156 41.277344 49.378906 41.367188 49.34375 41.453125 C 49.0625 42.164062 48.78125 42.878906 48.5 43.589844 C 48.46875 43.667969 48.4375 43.746094 48.414062 43.828125 C 48.351562 44.066406 48.457031 44.253906 48.691406 44.328125 C 48.761719 44.351562 48.835938 44.363281 48.910156 44.367188 C 49.386719 44.402344 49.863281 44.433594 50.335938 44.457031 C 50.695312 44.476562 50.859375 44.269531 50.765625 43.925781 C 50.75 43.863281 50.722656 43.804688 50.699219 43.742188 C 50.539062 43.296875 50.375 42.847656 50.195312 42.359375 Z M 50.195312 42.359375 " fill-opacity="1" fill-rule="nonzero"/><path fill="#1298a8" d="M 39.664062 60.515625 C 38.398438 60.511719 37.164062 60.515625 35.929688 60.511719 C 35.824219 60.511719 35.71875 60.515625 35.621094 60.492188 C 35.382812 60.425781 35.21875 60.261719 35.191406 60.023438 C 35.105469 59.351562 35.183594 58.730469 35.703125 58.207031 C 36.769531 57.144531 37.8125 56.054688 38.863281 54.972656 C 39.167969 54.65625 39.445312 54.316406 39.632812 53.910156 C 39.976562 53.167969 39.636719 52.609375 38.816406 52.597656 C 38.011719 52.585938 37.308594 52.835938 36.777344 53.472656 C 36.757812 53.492188 36.738281 53.515625 36.722656 53.535156 C 36.484375 53.792969 36.257812 53.800781 36.03125 53.539062 C 35.683594 53.148438 35.351562 52.742188 35.011719 52.34375 C 35.003906 52.335938 35 52.328125 34.992188 52.320312 C 34.773438 52.011719 34.832031 51.65625 35.144531 51.441406 C 35.886719 50.941406 36.703125 50.625 37.582031 50.480469 C 38.550781 50.316406 39.519531 50.328125 40.46875 50.621094 C 40.761719 50.710938 41.050781 50.835938 41.316406 50.988281 C 42.335938 51.582031 42.734375 52.660156 42.371094 53.789062 C 42.191406 54.351562 41.886719 54.84375 41.515625 55.292969 C 41.175781 55.703125 40.816406 56.097656 40.445312 56.480469 C 39.984375 56.960938 39.507812 57.421875 39.039062 57.894531 C 38.980469 57.953125 38.917969 58.011719 38.871094 58.082031 C 38.761719 58.242188 38.816406 58.367188 39.011719 58.410156 C 39.0625 58.421875 39.121094 58.417969 39.175781 58.421875 C 40.136719 58.453125 41.085938 58.398438 42.011719 58.117188 C 42.101562 58.089844 42.195312 58.070312 42.285156 58.0625 C 42.539062 58.042969 42.71875 58.179688 42.773438 58.429688 C 42.789062 58.511719 42.792969 58.597656 42.792969 58.679688 C 42.792969 59.035156 42.792969 59.390625 42.792969 59.746094 C 42.792969 59.824219 42.789062 59.898438 42.777344 59.972656 C 42.730469 60.351562 42.574219 60.496094 42.191406 60.507812 C 41.824219 60.519531 41.460938 60.511719 41.09375 60.515625 C 40.628906 60.515625 40.160156 60.515625 39.664062 60.515625 Z M 39.664062 60.515625 " fill-opacity="1" fill-rule="nonzero"/><path fill="#1298a8" d="M 45.375 54.882812 C 45.480469 54.621094 45.625 54.421875 45.804688 54.238281 C 46.148438 53.894531 46.484375 53.542969 46.820312 53.191406 C 46.921875 53.085938 47.039062 52.984375 47.03125 52.804688 C 46.929688 52.695312 46.796875 52.703125 46.667969 52.695312 C 46.007812 52.65625 45.363281 52.734375 44.730469 52.941406 C 44.589844 52.988281 44.445312 53.03125 44.296875 53.046875 C 44.066406 53.070312 43.960938 52.964844 43.972656 52.738281 C 43.976562 52.664062 43.992188 52.589844 44.011719 52.515625 C 44.121094 52.089844 44.230469 51.667969 44.347656 51.242188 C 44.480469 50.753906 44.75 50.535156 45.257812 50.535156 C 47.121094 50.53125 48.980469 50.53125 50.84375 50.535156 C 50.980469 50.535156 51.148438 50.5 51.226562 50.648438 C 51.3125 50.816406 51.171875 50.925781 51.074219 51.039062 C 50.210938 52.050781 49.347656 53.058594 48.484375 54.070312 C 48.367188 54.203125 48.242188 54.332031 48.210938 54.546875 C 48.285156 54.566406 48.351562 54.59375 48.417969 54.605469 C 48.957031 54.691406 49.480469 54.828125 49.953125 55.113281 C 50.886719 55.671875 51.351562 56.660156 51.203125 57.738281 C 51.027344 59.035156 50.234375 59.796875 49.054688 60.226562 C 48.542969 60.410156 48.007812 60.503906 47.460938 60.507812 C 46.617188 60.515625 45.773438 60.515625 44.933594 60.511719 C 44.472656 60.507812 44.289062 60.324219 44.277344 59.859375 C 44.269531 59.457031 44.273438 59.054688 44.277344 58.652344 C 44.28125 58.164062 44.503906 57.984375 44.972656 58.097656 C 45.492188 58.226562 46.003906 58.378906 46.539062 58.394531 C 46.941406 58.40625 47.34375 58.371094 47.742188 58.355469 C 47.796875 58.351562 47.851562 58.332031 47.90625 58.3125 C 48.269531 58.199219 48.589844 58.03125 48.648438 57.601562 C 48.710938 57.132812 48.605469 56.726562 48.171875 56.457031 C 47.84375 56.253906 47.476562 56.195312 47.097656 56.183594 C 46.714844 56.175781 46.332031 56.183594 45.945312 56.179688 C 45.5 56.175781 45.265625 55.953125 45.273438 55.507812 C 45.28125 55.304688 45.335938 55.105469 45.375 54.882812 Z M 45.375 54.882812 " fill-opacity="1" fill-rule="nonzero"/><path fill="#1299a8" d="M 55.058594 19.265625 C 55.039062 18.136719 55.351562 17.152344 56.070312 16.308594 C 56.75 15.507812 57.625 15.09375 58.660156 15.007812 C 59.191406 14.964844 59.726562 15 60.25 15.125 C 60.9375 15.285156 61.5 15.664062 61.96875 16.179688 C 62.476562 16.734375 62.839844 17.375 63.054688 18.09375 C 63.234375 18.699219 63.265625 19.3125 63.078125 19.917969 C 62.996094 20.183594 62.871094 20.445312 62.707031 20.664062 C 62.546875 20.878906 62.417969 21.097656 62.332031 21.347656 C 62.078125 22.058594 61.570312 22.539062 60.90625 22.855469 C 60.292969 23.144531 59.636719 23.304688 58.953125 23.3125 C 57.464844 23.324219 56.375 22.648438 55.636719 21.378906 C 55.261719 20.738281 55.085938 20.03125 55.058594 19.265625 M 57.175781 18.96875 C 57.179688 19.144531 57.171875 19.324219 57.195312 19.5 C 57.261719 20.015625 57.457031 20.476562 57.851562 20.828125 C 58.28125 21.210938 58.800781 21.230469 59.335938 21.164062 C 60.019531 21.074219 60.433594 20.558594 60.511719 19.953125 C 60.550781 19.65625 60.664062 19.394531 60.894531 19.195312 C 61.085938 19.03125 61.113281 18.824219 61.058594 18.609375 C 60.964844 18.253906 60.828125 17.914062 60.574219 17.636719 C 60.382812 17.429688 60.164062 17.238281 59.871094 17.203125 C 59.550781 17.160156 59.21875 17.128906 58.894531 17.144531 C 58.085938 17.183594 57.5 17.644531 57.273438 18.390625 C 57.222656 18.5625 57.207031 18.742188 57.175781 18.96875 Z M 57.175781 18.96875 " fill-opacity="1" fill-rule="nonzero"/><path fill="#1299a8" d="M 36.222656 25.203125 C 36.222656 24.414062 36.355469 23.667969 36.472656 22.921875 C 36.511719 22.683594 36.597656 22.449219 36.707031 22.234375 C 36.894531 21.863281 37.226562 21.746094 37.628906 21.84375 C 37.816406 21.890625 37.960938 22 38.03125 22.164062 C 38.160156 22.457031 38.300781 22.75 38.359375 23.054688 C 38.480469 23.6875 38.59375 24.324219 38.632812 24.96875 C 38.703125 26.078125 38.714844 27.191406 38.75 28.300781 C 38.753906 28.378906 38.753906 28.453125 38.746094 28.527344 C 38.726562 28.769531 38.589844 28.914062 38.347656 28.910156 C 37.722656 28.890625 37.097656 28.863281 36.472656 28.824219 C 36.238281 28.808594 36.125 28.660156 36.128906 28.398438 C 36.140625 27.929688 36.160156 27.460938 36.171875 26.996094 C 36.1875 26.40625 36.203125 25.816406 36.222656 25.203125 Z M 36.222656 25.203125 " fill-opacity="1" fill-rule="nonzero"/><path fill="#1299a8" d="M 42.523438 28.9375 C 42.355469 28.933594 42.214844 28.941406 42.078125 28.925781 C 41.839844 28.902344 41.710938 28.746094 41.71875 28.507812 C 41.742188 27.539062 41.746094 26.5625 41.800781 25.59375 C 41.828125 25.035156 41.9375 24.484375 42.019531 23.929688 C 42.042969 23.792969 42.09375 23.660156 42.15625 23.535156 C 42.371094 23.09375 42.796875 22.925781 43.261719 23.085938 C 43.449219 23.152344 43.566406 23.292969 43.660156 23.460938 C 43.871094 23.832031 43.96875 24.242188 44.042969 24.65625 C 44.269531 25.949219 44.289062 27.257812 44.277344 28.570312 C 44.277344 28.863281 44.140625 28.992188 43.839844 28.984375 C 43.410156 28.976562 42.980469 28.957031 42.523438 28.9375 Z M 42.523438 28.9375 " fill-opacity="1" fill-rule="nonzero"/><path fill="#1299a8" d="M 31.589844 28.988281 C 31.523438 28.988281 31.488281 28.992188 31.449219 28.988281 C 31.179688 28.964844 31.058594 28.847656 31.058594 28.578125 C 31.0625 27.894531 31.066406 27.210938 31.09375 26.53125 C 31.125 25.8125 31.183594 25.09375 31.351562 24.390625 C 31.425781 24.09375 31.527344 23.800781 31.644531 23.515625 C 31.792969 23.167969 32.074219 23.019531 32.453125 23.035156 C 32.8125 23.046875 33.050781 23.238281 33.1875 23.550781 C 33.269531 23.738281 33.320312 23.941406 33.363281 24.140625 C 33.511719 24.855469 33.5625 25.582031 33.574219 26.3125 C 33.585938 27.042969 33.605469 27.773438 33.617188 28.5 C 33.621094 28.78125 33.488281 28.917969 33.183594 28.929688 C 32.660156 28.953125 32.136719 28.96875 31.589844 28.988281 Z M 31.589844 28.988281 " fill-opacity="1" fill-rule="nonzero"/><path fill="#169aa8" d="M 37.417969 35.765625 C 37.230469 35.765625 37.070312 35.773438 36.914062 35.761719 C 36.761719 35.75 36.722656 35.691406 36.734375 35.535156 C 36.734375 35.519531 36.738281 35.5 36.742188 35.480469 C 36.933594 34.949219 36.871094 34.390625 36.882812 33.84375 C 36.886719 33.5625 36.898438 33.28125 36.875 33 C 36.855469 32.761719 36.789062 32.523438 36.746094 32.289062 C 36.707031 32.070312 36.75 31.992188 36.957031 31.992188 C 37.582031 31.992188 38.210938 31.957031 38.832031 32.023438 C 40.519531 32.203125 40.824219 33.890625 40.265625 34.847656 C 39.957031 35.378906 39.46875 35.664062 38.875 35.726562 C 38.402344 35.773438 37.921875 35.757812 37.417969 35.765625 M 38.191406 32.800781 C 37.914062 32.832031 37.875 32.867188 37.871094 33.117188 C 37.867188 33.632812 37.867188 34.144531 37.871094 34.660156 C 37.875 34.882812 37.941406 34.945312 38.15625 34.957031 C 38.304688 34.960938 38.453125 34.960938 38.605469 34.953125 C 38.984375 34.933594 39.269531 34.746094 39.402344 34.390625 C 39.472656 34.195312 39.5 33.972656 39.496094 33.761719 C 39.480469 33.210938 39.070312 32.820312 38.523438 32.800781 C 38.429688 32.800781 38.335938 32.800781 38.191406 32.800781 Z M 38.191406 32.800781 " fill-opacity="1" fill-rule="nonzero"/><path fill="#179aa9" d="M 28.121094 34.117188 C 28.285156 34.347656 28.425781 34.570312 28.589844 34.769531 C 28.683594 34.878906 28.816406 34.960938 28.941406 35.039062 C 29.121094 35.152344 29.148438 35.210938 29.054688 35.402344 C 28.871094 35.78125 28.320312 35.898438 27.972656 35.609375 C 27.824219 35.488281 27.699219 35.328125 27.59375 35.164062 C 27.46875 34.96875 27.375 34.753906 27.261719 34.550781 C 27.175781 34.402344 27.097656 34.394531 26.972656 34.507812 C 26.730469 34.734375 26.589844 34.984375 26.746094 35.328125 C 26.796875 35.449219 26.8125 35.589844 26.839844 35.71875 C 26.539062 35.792969 25.734375 35.78125 25.511719 35.707031 C 25.527344 35.621094 25.550781 35.535156 25.566406 35.445312 C 25.605469 35.199219 25.667969 34.953125 25.675781 34.703125 C 25.691406 34.179688 25.675781 33.65625 25.683594 33.132812 C 25.6875 32.839844 25.65625 32.554688 25.558594 32.277344 C 25.535156 32.207031 25.527344 32.136719 25.503906 32.027344 C 25.953125 31.949219 26.378906 31.996094 26.851562 31.992188 C 26.785156 32.273438 26.714844 32.5 26.6875 32.738281 C 26.660156 32.96875 26.679688 33.203125 26.679688 33.476562 C 26.753906 33.425781 26.8125 33.398438 26.847656 33.359375 C 27.132812 33.023438 27.433594 32.699219 27.691406 32.347656 C 27.882812 32.082031 28.105469 31.960938 28.425781 31.984375 C 28.601562 32 28.78125 31.984375 28.957031 31.988281 C 29.039062 31.992188 29.117188 32.007812 29.261719 32.023438 C 29.160156 32.140625 29.097656 32.21875 29.03125 32.289062 C 28.71875 32.613281 28.402344 32.929688 28.097656 33.257812 C 27.851562 33.523438 27.84375 33.609375 28.015625 33.929688 C 28.046875 33.984375 28.078125 34.042969 28.121094 34.117188 Z M 28.121094 34.117188 " fill-opacity="1" fill-rule="nonzero"/><path fill="#179aa9" d="M 32.421875 33.039062 C 32.421875 33.101562 32.417969 33.140625 32.421875 33.175781 C 32.441406 33.414062 32.496094 33.476562 32.730469 33.480469 C 33.078125 33.484375 33.421875 33.480469 33.769531 33.480469 C 33.835938 33.480469 33.902344 33.476562 33.964844 33.484375 C 34.117188 33.5 34.175781 33.558594 34.148438 33.703125 C 34.128906 33.828125 34.089844 33.957031 34.042969 34.078125 C 33.980469 34.226562 33.851562 34.269531 33.699219 34.265625 C 33.398438 34.265625 33.097656 34.265625 32.800781 34.269531 C 32.460938 34.273438 32.320312 34.488281 32.441406 34.8125 C 32.484375 34.925781 32.570312 34.96875 32.679688 34.96875 C 33.140625 34.96875 33.597656 34.992188 34.046875 34.867188 C 34.5 34.742188 34.519531 34.769531 34.394531 35.230469 C 34.25 35.765625 34.25 35.765625 33.6875 35.769531 C 33.015625 35.769531 32.339844 35.769531 31.667969 35.769531 C 31.59375 35.765625 31.519531 35.769531 31.445312 35.761719 C 31.320312 35.75 31.261719 35.675781 31.277344 35.550781 C 31.277344 35.53125 31.28125 35.511719 31.289062 35.496094 C 31.484375 34.972656 31.417969 34.425781 31.429688 33.882812 C 31.429688 33.667969 31.425781 33.453125 31.429688 33.238281 C 31.433594 32.9375 31.402344 32.644531 31.316406 32.351562 C 31.226562 32.054688 31.273438 31.992188 31.570312 31.988281 C 32.328125 31.984375 33.085938 31.984375 33.84375 31.988281 C 34.132812 31.992188 34.207031 32.050781 34.285156 32.320312 C 34.316406 32.425781 34.351562 32.535156 34.375 32.644531 C 34.417969 32.863281 34.363281 32.929688 34.144531 32.882812 C 33.664062 32.769531 33.179688 32.785156 32.691406 32.789062 C 32.480469 32.789062 32.480469 32.792969 32.421875 33.039062 Z M 32.421875 33.039062 " fill-opacity="1" fill-rule="nonzero"/><path fill="#169aa8" d="M 46.109375 34.839844 C 46.253906 35.132812 46.386719 35.40625 46.527344 35.683594 C 46.472656 35.714844 46.441406 35.75 46.410156 35.753906 C 46.109375 35.757812 45.8125 35.765625 45.511719 35.757812 C 45.378906 35.757812 45.289062 35.667969 45.257812 35.535156 C 45.242188 35.480469 45.238281 35.425781 45.226562 35.371094 C 45.183594 35.179688 45.113281 35.109375 44.925781 35.105469 C 44.558594 35.097656 44.195312 35.097656 43.828125 35.105469 C 43.628906 35.109375 43.550781 35.179688 43.492188 35.375 C 43.382812 35.746094 43.355469 35.765625 42.964844 35.765625 C 42.804688 35.769531 42.644531 35.773438 42.488281 35.765625 C 42.417969 35.761719 42.347656 35.738281 42.257812 35.71875 C 42.28125 35.632812 42.289062 35.570312 42.316406 35.515625 C 42.570312 34.976562 42.832031 34.4375 43.078125 33.894531 C 43.3125 33.375 43.539062 32.851562 43.753906 32.320312 C 43.847656 32.089844 43.992188 31.984375 44.242188 31.984375 C 44.949219 31.984375 44.90625 31.980469 45.15625 32.570312 C 45.46875 33.320312 45.785156 34.070312 46.109375 34.839844 M 44.046875 33.851562 C 44.007812 33.949219 43.964844 34.042969 43.9375 34.140625 C 43.910156 34.25 43.953125 34.328125 44.074219 34.332031 C 44.261719 34.335938 44.449219 34.339844 44.636719 34.332031 C 44.804688 34.324219 44.851562 34.257812 44.792969 34.09375 C 44.6875 33.800781 44.574219 33.515625 44.464844 33.230469 C 44.445312 33.183594 44.433594 33.140625 44.417969 33.09375 C 44.34375 33.164062 44.324219 33.175781 44.316406 33.191406 C 44.230469 33.398438 44.144531 33.605469 44.046875 33.851562 Z M 44.046875 33.851562 " fill-opacity="1" fill-rule="nonzero"/><path fill="#179aa9" d="M 49.757812 35.402344 C 49.789062 35.519531 49.808594 35.617188 49.839844 35.757812 C 49.378906 35.777344 48.957031 35.765625 48.492188 35.765625 C 48.519531 35.625 48.539062 35.527344 48.554688 35.429688 C 48.59375 35.191406 48.652344 34.953125 48.660156 34.714844 C 48.675781 34.210938 48.660156 33.703125 48.664062 33.199219 C 48.667969 32.878906 48.644531 32.566406 48.539062 32.261719 C 48.460938 32.027344 48.492188 31.992188 48.726562 31.988281 C 49.082031 31.984375 49.433594 31.988281 49.832031 31.988281 C 49.808594 32.117188 49.804688 32.207031 49.773438 32.289062 C 49.679688 32.550781 49.652344 32.816406 49.65625 33.089844 C 49.660156 33.640625 49.648438 34.191406 49.660156 34.746094 C 49.667969 34.957031 49.71875 35.167969 49.757812 35.402344 Z M 49.757812 35.402344 " fill-opacity="1" fill-rule="nonzero"/><path fill="#fafdfd" d="M 13.351562 40.546875 C 13.742188 40.546875 14.109375 40.511719 14.46875 40.554688 C 15.074219 40.628906 15.4375 41.011719 15.582031 41.59375 C 15.714844 42.113281 15.6875 42.632812 15.496094 43.136719 C 15.242188 43.792969 14.722656 44.101562 14.058594 44.195312 C 13.628906 44.253906 13.203125 44.292969 12.773438 44.332031 C 12.398438 44.359375 12.191406 44.199219 12.121094 43.832031 C 12.105469 43.757812 12.097656 43.683594 12.097656 43.609375 C 12.097656 42.867188 12.09375 42.128906 12.097656 41.390625 C 12.097656 41.296875 12.113281 41.203125 12.136719 41.113281 C 12.230469 40.753906 12.449219 40.582031 12.820312 40.566406 C 12.988281 40.558594 13.15625 40.554688 13.351562 40.546875 Z M 13.351562 40.546875 " fill-opacity="1" fill-rule="nonzero"/><path fill="#f8fdfd" d="M 50.207031 42.378906 C 50.375 42.847656 50.539062 43.296875 50.699219 43.742188 C 50.722656 43.804688 50.75 43.863281 50.765625 43.925781 C 50.859375 44.269531 50.695312 44.476562 50.335938 44.457031 C 49.863281 44.433594 49.386719 44.402344 48.910156 44.367188 C 48.835938 44.363281 48.761719 44.351562 48.691406 44.328125 C 48.457031 44.253906 48.351562 44.066406 48.414062 43.828125 C 48.4375 43.746094 48.46875 43.667969 48.5 43.589844 C 48.78125 42.878906 49.0625 42.164062 49.34375 41.453125 C 49.378906 41.367188 49.410156 41.277344 49.460938 41.199219 C 49.554688 41.050781 49.664062 41.054688 49.761719 41.207031 C 49.804688 41.277344 49.832031 41.359375 49.863281 41.4375 C 49.976562 41.742188 50.085938 42.050781 50.207031 42.378906 Z M 50.207031 42.378906 " fill-opacity="1" fill-rule="nonzero"/><path fill="#fbfefe" d="M 57.175781 18.941406 C 57.207031 18.742188 57.222656 18.5625 57.273438 18.390625 C 57.5 17.644531 58.085938 17.183594 58.894531 17.144531 C 59.21875 17.128906 59.550781 17.160156 59.871094 17.203125 C 60.164062 17.238281 60.382812 17.429688 60.574219 17.636719 C 60.828125 17.914062 60.964844 18.253906 61.058594 18.609375 C 61.113281 18.824219 61.085938 19.03125 60.894531 19.195312 C 60.664062 19.394531 60.550781 19.65625 60.511719 19.953125 C 60.433594 20.558594 60.019531 21.074219 59.335938 21.164062 C 58.800781 21.230469 58.28125 21.210938 57.851562 20.828125 C 57.457031 20.476562 57.261719 20.015625 57.195312 19.5 C 57.171875 19.324219 57.179688 19.144531 57.175781 18.941406 Z M 57.175781 18.941406 " fill-opacity="1" fill-rule="nonzero"/><path fill="#f8fdfd" d="M 38.21875 32.800781 C 38.335938 32.800781 38.429688 32.800781 38.523438 32.800781 C 39.070312 32.820312 39.480469 33.210938 39.496094 33.761719 C 39.5 33.972656 39.472656 34.195312 39.402344 34.390625 C 39.269531 34.746094 38.984375 34.933594 38.605469 34.953125 C 38.453125 34.960938 38.304688 34.960938 38.15625 34.957031 C 37.941406 34.945312 37.875 34.882812 37.871094 34.660156 C 37.867188 34.144531 37.867188 33.632812 37.871094 33.117188 C 37.875 32.867188 37.914062 32.832031 38.21875 32.800781 Z M 38.21875 32.800781 " fill-opacity="1" fill-rule="nonzero"/><path fill="#f8fdfd" d="M 44.050781 33.832031 C 44.144531 33.605469 44.230469 33.398438 44.316406 33.191406 C 44.324219 33.175781 44.34375 33.164062 44.417969 33.09375 C 44.433594 33.140625 44.445312 33.183594 44.464844 33.230469 C 44.574219 33.515625 44.6875 33.800781 44.792969 34.09375 C 44.851562 34.257812 44.804688 34.324219 44.636719 34.332031 C 44.449219 34.339844 44.261719 34.335938 44.074219 34.332031 C 43.953125 34.328125 43.910156 34.25 43.9375 34.140625 C 43.964844 34.042969 44.007812 33.949219 44.050781 33.832031 Z M 44.050781 33.832031 " fill-opacity="1" fill-rule="nonzero"/></svg>