<svg version="1.1" id="Layer_1" xmlns="http://www.w3.org/2000/svg" xmlns:xlink="http://www.w3.org/1999/xlink" x="0px" y="0px"
	 width="100%" viewBox="0 0 1238 1238" enable-background="new 0 0 1238 1238" xml:space="preserve">
<path fill="#FFFFFF" opacity="1.000000" stroke="none" 
	d="
M731.000000,1239.000000 
	C487.333344,1239.000000 244.166672,1239.000000 1.000000,1239.000000 
	C1.000000,826.333313 1.000000,413.666656 1.000000,1.000000 
	C413.666656,1.000000 826.333313,1.000000 1239.000000,1.000000 
	C1239.000000,413.666656 1239.000000,826.333313 1239.000000,1239.000000 
	C1069.833374,1239.000000 900.666687,1239.000000 731.000000,1239.000000 
M1053.500488,444.234802 
	C1038.636963,444.261749 1023.901733,443.290649 1009.465271,439.324554 
	C990.465210,434.104706 974.360229,423.498047 958.681458,412.161316 
	C864.603455,344.136566 770.569214,276.051239 676.532837,207.968872 
	C642.233215,183.135895 597.577087,182.956558 563.185547,207.803452 
	C498.648895,254.429306 434.217438,301.200897 369.687042,347.835480 
	C335.669434,372.419128 301.617645,396.957275 267.423859,421.294830 
	C245.888977,436.622437 221.666168,443.994232 195.259354,444.066071 
	C154.094772,444.178040 112.929955,444.201111 71.765221,444.252869 
	C58.932312,444.269012 46.099209,444.217407 33.266502,444.270416 
	C25.104982,444.304138 21.846724,447.650665 21.803602,455.890747 
	C21.771334,462.057068 21.772346,468.223785 21.802841,474.390106 
	C21.844950,482.905212 25.006519,486.005280 33.677017,486.006195 
	C85.342033,486.011597 137.010437,486.330475 188.669922,485.794525 
	C203.399078,485.641724 218.274277,483.935364 232.779938,481.285278 
	C259.052704,476.485474 281.511597,462.978699 302.830872,447.562775 
	C397.177704,379.340759 491.481964,311.059906 585.781677,242.772736 
	C607.474121,227.064148 631.680908,226.905258 653.373291,242.591949 
	C702.637634,278.217255 751.852905,313.910400 801.124390,349.525879 
	C848.909668,384.067047 896.654785,418.664948 944.584534,453.004791 
	C971.274475,472.127014 1000.842590,483.918976 1033.966675,485.163910 
	C1052.938721,485.876984 1071.941772,485.919189 1090.931763,485.976501 
	C1129.096802,486.091736 1167.262573,486.016937 1205.427979,486.005219 
	C1213.990112,486.002594 1217.104370,482.850525 1217.136475,474.221924 
	C1217.157593,468.555511 1217.145264,462.888947 1217.139648,457.222473 
	C1217.129639,447.032684 1214.324097,444.258301 1203.995361,444.256927 
	C1154.163574,444.250336 1104.331909,444.249146 1053.500488,444.234802 
M941.475708,348.010956 
	C957.526062,359.642456 973.563843,371.291412 989.630615,382.900146 
	C1003.875977,393.192902 1019.719666,399.736115 1037.319824,400.045258 
	C1072.637207,400.665558 1107.968506,400.561554 1143.294312,400.608307 
	C1149.846313,400.617004 1153.293213,396.898529 1153.485962,390.171051 
	C1153.667236,383.842957 1153.580444,377.505432 1153.528442,371.172729 
	C1153.452881,361.980835 1150.367798,358.963165 1141.123291,358.961029 
	C1109.790527,358.953766 1078.457397,358.852600 1047.125366,359.007080 
	C1033.997559,359.071808 1022.432678,355.391510 1011.731628,347.618286 
	C929.660217,288.002167 847.463257,228.559006 765.291687,169.080963 
	C745.737854,154.927368 726.427551,140.435120 704.786926,129.415436 
	C667.387329,110.371078 628.203735,103.020020 586.690674,111.063316 
	C553.513123,117.491554 524.330566,132.883621 497.236053,152.457901 
	C407.449341,217.323730 317.728424,282.280975 228.101196,347.366852 
	C217.263504,355.237000 205.601639,359.079742 192.282928,359.010590 
	C160.451080,358.845428 128.617783,358.937958 96.785126,358.974884 
	C89.545494,358.983276 86.072205,362.495972 86.008385,369.703857 
	C85.953796,375.869904 85.990639,382.036865 85.997871,388.203400 
	C86.008827,397.546051 89.160675,400.662537 98.699646,400.666412 
	C129.865692,400.679108 161.031845,400.617432 192.197723,400.687836 
	C214.392548,400.738007 234.253937,394.348083 252.337921,381.197723 
	C337.072815,319.579987 422.019012,258.252899 506.856842,196.776566 
	C523.181274,184.947296 539.553955,173.251434 557.802612,164.434906 
	C585.810303,150.903488 615.030579,146.012512 645.696350,152.123779 
	C671.311829,157.228561 693.995056,169.120819 714.947327,184.212448 
	C790.363586,238.533813 865.594238,293.112976 941.475708,348.010956 
M1172.124390,875.498291 
	C1172.124390,836.335083 1172.329468,797.170227 1172.009399,758.009583 
	C1171.902222,744.894897 1173.281616,732.169189 1176.749756,719.542725 
	C1178.591187,712.837891 1179.852905,705.933838 1180.811768,699.041138 
	C1181.401733,694.800110 1179.501221,692.477539 1174.439819,692.558044 
	C1156.612671,692.841858 1138.778198,692.666931 1120.946533,692.668640 
	C1113.570679,692.669373 1112.612183,693.619385 1112.968872,700.925171 
	C1113.057373,702.737061 1113.396606,704.559998 1113.826294,706.327820 
	C1115.514404,713.273926 1118.303833,720.124329 1118.825439,727.148254 
	C1120.167358,745.217346 1120.619019,763.356750 1121.218506,781.474915 
	C1121.486816,789.585876 1119.823975,791.464722 1111.742920,790.934998 
	C1092.802124,789.693420 1073.880249,788.107544 1054.978638,786.358704 
	C1048.345703,785.745056 1043.136963,780.756897 1043.174683,774.183777 
	C1043.281128,755.631958 1040.625122,736.899902 1046.665894,718.645996 
	C1048.791992,712.221375 1049.988770,705.453125 1051.165649,698.763611 
	C1051.905762,694.556274 1050.016479,692.500977 1045.239380,692.574829 
	C1029.244629,692.822388 1013.243835,692.668213 997.245361,692.668091 
	C981.917358,692.667969 981.172058,693.502991 985.568481,708.518433 
	C989.708069,722.656677 992.365173,736.888000 992.219849,751.743774 
	C991.901978,784.237610 991.889038,816.739136 992.221741,849.232666 
	C992.382019,864.889709 990.649109,880.073853 985.521606,894.910950 
	C984.303528,898.435608 983.942383,902.412109 984.035583,906.159729 
	C984.074341,907.720947 986.129150,910.316284 987.612366,910.593323 
	C1007.236389,914.257751 1026.925903,917.569946 1046.588135,921.032104 
	C1049.972412,921.627991 1051.428955,920.079102 1051.146484,916.999023 
	C1050.784302,913.048401 1050.467529,909.001038 1049.347778,905.227844 
	C1043.640015,885.993286 1042.116333,866.343506 1042.906250,846.417542 
	C1043.243408,837.910583 1048.234497,833.642212 1056.514038,834.674316 
	C1068.737671,836.197937 1080.980469,837.568481 1093.201294,839.113525 
	C1100.133057,839.989990 1107.104492,840.760254 1113.934814,842.173584 
	C1120.562988,843.545044 1121.731689,845.617493 1121.497437,852.219238 
	C1121.332153,856.881348 1121.149536,861.555542 1121.299805,866.213867 
	C1121.889526,884.497375 1120.166992,902.437256 1114.381348,919.919739 
	C1113.312744,923.148621 1112.947021,926.873352 1113.369507,930.229187 
	C1113.606201,932.110657 1115.852173,934.812683 1117.658325,935.258179 
	C1137.034668,940.037048 1156.509277,944.417236 1175.943237,948.964844 
	C1179.342285,949.760254 1180.828125,948.012756 1180.755493,945.118042 
	C1180.660278,941.322021 1180.326904,937.453125 1179.451050,933.768860 
	C1174.972046,914.928711 1171.360718,895.999146 1172.124390,875.498291 
M167.453415,868.117798 
	C169.632339,873.863892 171.560410,879.721497 174.051651,885.328857 
	C177.409256,892.886108 180.475983,900.727966 184.988113,907.577820 
	C190.709244,916.263000 199.728912,919.135498 209.972961,917.460388 
	C225.916611,914.853149 236.164200,905.262573 242.078522,890.643372 
	C245.149811,883.051636 243.444962,878.364624 235.793365,875.626709 
	C226.955856,872.464417 220.971695,866.362732 215.931030,858.922058 
	C210.491486,850.892700 210.422745,843.586548 217.219376,836.749207 
	C233.451492,820.419800 240.934219,800.523193 242.541550,778.038208 
	C245.923737,730.724609 222.188492,696.356873 172.299316,693.358459 
	C140.087921,691.422546 107.677910,692.755249 75.356796,692.716980 
	C70.017876,692.710693 66.609634,695.849854 66.091583,701.217651 
	C65.824730,703.982666 66.056259,706.896667 66.626846,709.625305 
	C70.202271,726.723450 74.236221,743.710144 74.175346,761.374207 
	C74.031799,803.027222 74.303452,844.682373 73.999634,886.333679 
	C73.930855,895.763184 72.532211,905.229736 71.135399,914.588135 
	C70.008698,922.136780 67.749641,929.509521 66.381721,937.031006 
	C64.900711,945.174438 69.207458,949.072815 77.149605,947.145996 
	C92.338791,943.461060 107.527435,939.773438 122.704109,936.037354 
	C130.427292,934.136108 133.989960,929.066223 132.952042,921.437561 
	C132.684982,919.474670 131.936920,917.582336 131.540314,915.631104 
	C129.423416,905.216248 126.965721,894.850952 125.372185,884.355225 
	C123.951881,875.000549 128.981293,867.539062 136.926163,866.112732 
	C143.801315,864.878357 150.766388,864.145447 157.642670,862.916443 
	C162.053574,862.128113 165.119354,863.476074 167.453415,868.117798 
M693.170593,342.329315 
	C685.687622,337.077850 678.540222,331.246613 670.657959,326.685059 
	C648.200684,313.688782 624.152588,307.954773 598.236145,313.081970 
	C575.011719,317.676575 555.785828,329.780060 538.143127,345.058655 
	C525.338196,356.147736 517.127808,369.847473 512.976440,386.067261 
	C511.251587,392.806396 510.159058,399.707367 508.658081,407.132874 
	C502.308014,407.132874 495.784332,406.651611 489.360809,407.248413 
	C480.279236,408.092133 471.185364,409.317627 462.262115,411.174591 
	C456.097961,412.457367 453.281738,416.391907 453.006897,421.491302 
	C452.684448,427.474304 454.552521,430.901703 461.015961,433.185455 
	C467.082611,435.329010 473.439972,437.003326 479.807251,437.861389 
	C489.986084,439.233185 500.278961,439.758911 510.603485,440.649200 
	C511.419800,444.214691 512.128723,447.798035 513.063965,451.321350 
	C523.485596,490.582428 546.494263,518.339600 586.478577,529.590210 
	C621.233887,539.369507 654.436890,534.522156 685.473267,516.113403 
	C703.582825,505.372070 716.460571,489.879120 723.496094,470.059174 
	C726.858704,460.586182 728.629883,450.548248 731.235596,440.319763 
	C737.237488,439.912994 744.090820,439.942047 750.769836,438.877472 
	C760.242188,437.367767 769.653809,435.318237 778.951599,432.950439 
	C782.672058,432.002991 785.548950,429.337982 786.225586,424.906219 
	C787.432922,416.998199 783.509644,411.489197 773.763855,410.221527 
	C761.092896,408.573456 748.284851,407.969788 735.531250,406.974762 
	C733.459106,406.813110 731.363403,406.952087 729.220642,406.952087 
	C726.308289,380.031586 712.913696,359.781464 693.170593,342.329315 
M607.023499,788.390259 
	C593.890076,760.560974 580.724365,732.746887 567.647034,704.891235 
	C564.596680,698.393799 559.852295,693.374390 552.726440,693.093506 
	C536.923645,692.470398 521.079407,692.686096 505.256775,692.902954 
	C500.284698,692.971069 497.457825,696.759277 497.944641,701.717224 
	C498.169312,704.005554 498.835388,706.290039 499.580414,708.481384 
	C504.622131,723.309631 506.518860,738.505859 506.202179,754.176453 
	C505.784729,774.832336 505.710632,795.512573 506.214691,816.164551 
	C506.670349,834.833130 504.877014,853.007812 498.785278,870.751343 
	C496.213745,878.241577 499.578186,882.410461 507.478394,882.197449 
	C517.137390,881.936890 526.787964,881.377380 536.445740,881.055359 
	C547.537537,880.685425 551.617371,876.521790 551.620667,865.295471 
	C551.629456,835.298889 551.612244,805.302246 551.648743,775.305664 
	C551.651611,772.920166 551.988403,770.535034 552.170105,768.149719 
	C552.628845,768.018066 553.087585,767.886414 553.546326,767.754761 
	C554.722534,769.774170 556.081482,771.710205 557.047180,773.825684 
	C568.443665,798.790649 579.802429,823.772888 591.122314,848.772705 
	C594.823486,856.946594 601.182800,860.851685 610.030334,860.944153 
	C612.196228,860.966797 614.363220,860.925476 616.529114,860.882996 
	C625.718079,860.702820 632.266785,856.721191 636.130005,848.105774 
	C647.290466,823.216675 658.636414,798.410461 669.957397,773.593567 
	C670.873840,771.584534 672.155212,769.741882 673.266968,767.821899 
	C673.725647,767.908386 674.184326,767.994934 674.643005,768.081421 
	C674.838745,770.114624 675.192444,772.147034 675.203735,774.181213 
	C675.261963,784.679688 675.075439,795.181580 675.266479,805.676880 
	C675.658325,827.210754 675.699280,848.628723 667.709290,869.217590 
	C665.481445,874.958374 668.705933,879.899475 674.878723,880.273499 
	C690.501465,881.219971 706.159546,881.693420 721.810486,881.997375 
	C726.677856,882.091858 729.562317,877.961731 728.851929,873.079773 
	C728.614136,871.445923 728.133911,869.823853 727.575623,868.263916 
	C722.173828,853.170349 720.380249,837.627625 720.699890,821.622437 
	C721.115784,800.799744 721.185974,779.953308 720.686096,759.134277 
	C720.245789,740.795654 722.223816,722.968567 727.898132,705.488342 
	C730.679504,696.919861 727.372498,692.750549 718.394775,692.689880 
	C706.063416,692.606506 693.718018,693.019409 681.402893,692.563721 
	C669.953979,692.140137 662.770508,696.870667 657.989441,707.320129 
	C645.325806,734.997803 632.136963,762.436523 618.964966,789.878052 
	C617.857483,792.185181 615.309265,793.800720 613.430420,795.737549 
	C611.552185,793.806946 609.667664,791.882446 607.804138,789.937744 
	C607.581665,789.705505 607.474243,789.362915 607.023499,788.390259 
M275.651093,792.499939 
	C276.439667,808.601196 275.736389,824.947998 278.336761,840.751160 
	C283.291779,870.864380 303.184906,890.039551 332.944794,895.575623 
	C350.247009,898.794250 367.515381,897.244629 384.421906,892.774170 
	C426.681915,881.599792 456.141510,850.243164 455.102722,801.727112 
	C454.828125,788.902893 455.459381,776.052612 454.969330,763.241211 
	C454.217041,743.574341 456.457794,724.417969 462.296021,705.601440 
	C465.041260,696.753601 461.680328,692.718018 452.281738,692.685364 
	C437.285675,692.633301 422.289307,692.650391 407.293091,692.677063 
	C397.082520,692.695251 394.365540,696.572083 396.684143,706.542236 
	C399.388641,718.171692 403.105530,729.843750 403.685089,741.630005 
	C404.804810,764.402588 404.416504,787.278503 403.806030,810.088928 
	C403.625183,816.845215 401.615753,824.004944 398.694397,830.147583 
	C391.045410,846.230896 372.412018,854.410400 353.962769,850.829224 
	C338.325287,847.793823 328.006775,835.734009 326.865051,817.031799 
	C325.902161,801.259644 326.731018,785.387024 326.230743,769.575745 
	C325.540710,747.767334 327.653564,726.395752 333.882935,705.417297 
	C336.378815,697.011963 332.797821,692.724609 323.952698,692.687866 
	C308.790070,692.624817 293.626984,692.644409 278.464203,692.679077 
	C268.921753,692.700867 265.163971,697.163574 267.908844,706.368042 
	C274.457336,728.326965 276.614502,750.708862 275.687866,773.505859 
	C275.444458,779.494446 275.650940,785.501404 275.651093,792.499939 
M416.855225,1032.619263 
	C417.475769,1016.908752 423.805786,1003.719482 434.798981,992.732727 
	C430.694611,988.207825 426.811279,983.926575 422.927917,979.645325 
	C423.213074,979.222717 423.498230,978.800049 423.783356,978.377441 
	C425.382446,978.263123 426.981384,978.051636 428.580627,978.049438 
	C443.741760,978.028625 458.904877,977.892029 474.063507,978.090210 
	C489.459534,978.291443 502.643188,983.507446 512.637085,995.780457 
	C517.504211,1001.757324 522.209839,1001.687744 527.152161,995.907898 
	C533.322510,988.691956 539.447571,981.436340 545.514832,974.133606 
	C551.623352,966.781189 550.616760,960.087280 542.525146,954.858521 
	C522.287415,941.780945 500.001984,935.286560 475.988464,935.054871 
	C451.165985,934.815430 426.339417,935.005432 401.514618,935.007385 
	C389.685364,935.008301 377.853333,934.875854 366.029114,935.119995 
	C363.630341,935.169495 361.260925,936.638733 358.877991,937.453491 
	C359.953552,939.871399 360.855225,942.389526 362.168884,944.670288 
	C362.976044,946.071594 364.417908,947.105652 365.566956,948.312073 
	C373.128265,956.250549 380.687439,964.191040 388.290039,972.175842 
	C386.827698,974.058350 385.598083,975.622253 384.388397,977.201416 
	C348.014862,1024.684570 359.004883,1104.761230 432.433228,1125.481934 
	C467.775513,1135.455078 501.288757,1128.284546 533.565063,1112.681396 
	C542.283875,1108.466553 546.268921,1101.327393 546.305115,1091.812500 
	C546.334290,1084.148560 546.337708,1076.484375 546.308777,1068.820435 
	C546.271790,1059.038330 548.018066,1049.653687 552.052979,1040.682251 
	C555.657715,1032.667358 553.031738,1028.473267 544.288818,1028.384766 
	C531.128052,1028.251587 517.963989,1028.254150 504.803101,1028.383789 
	C496.350067,1028.467041 493.569550,1032.753296 496.984131,1040.379395 
	C501.081726,1049.531006 502.858154,1059.021118 502.241272,1069.037109 
	C501.828796,1075.734009 499.158051,1079.837402 492.895752,1082.165771 
	C490.253479,1083.148193 487.524384,1083.937256 484.785065,1084.612549 
	C450.582031,1093.045776 415.152710,1073.280762 416.855225,1032.619263 
M942.633972,903.892944 
	C947.245850,904.551941 951.843323,905.543091 956.475098,905.745178 
	C959.244568,905.865906 963.478577,905.626160 964.507690,903.968018 
	C965.776367,901.923889 965.305542,897.754700 964.021851,895.333374 
	C950.961426,870.699646 941.899475,844.427185 931.934998,818.515259 
	C917.434692,780.807922 902.796326,743.153442 888.140686,705.506104 
	C884.693970,696.652283 878.779175,692.729736 869.391907,692.679749 
	C861.061340,692.635376 852.730103,692.705994 844.399536,692.662354 
	C835.373352,692.615112 829.338135,696.872375 825.797546,705.095581 
	C816.328918,727.087341 807.061035,749.171692 797.195007,770.984863 
	C781.518188,805.645203 768.763794,841.709351 747.938538,873.926636 
	C744.488403,879.264038 747.204651,883.496887 753.858093,883.992554 
	C764.320190,884.771790 774.870300,884.892273 785.233276,886.353699 
	C799.853882,888.415527 806.914612,886.011719 809.885437,868.430847 
	C811.627991,858.119019 816.883423,854.244263 827.412598,855.059631 
	C846.666870,856.550659 865.899597,858.336975 885.127014,860.150818 
	C892.224792,860.820435 897.692688,865.975525 899.138611,873.107117 
	C899.964050,877.177979 900.347290,881.336487 901.034485,885.437927 
	C902.321106,893.117798 908.374329,898.924927 916.070679,900.030457 
	C924.635315,901.260681 933.193848,902.532654 942.633972,903.892944 
M577.457336,979.050781 
	C581.750793,984.147522 586.022705,989.262512 590.343262,994.336182 
	C595.556458,1000.458069 600.039185,1000.607849 605.165710,994.481201 
	C615.798645,981.773865 629.565491,976.548889 645.802795,976.915222 
	C661.293335,977.264709 668.545105,988.144226 661.494690,1001.884033 
	C657.602905,1009.468140 652.321411,1016.636719 646.462830,1022.859436 
	C627.161682,1043.359985 607.640503,1063.679199 587.538025,1083.389038 
	C576.948914,1093.771240 572.760132,1105.460571 574.695557,1119.869995 
	C575.595703,1126.572388 579.730713,1130.979126 586.498169,1130.990601 
	C627.990051,1131.061279 669.482300,1131.062256 710.974060,1130.969604 
	C718.343933,1130.953125 722.206543,1127.768188 722.591553,1120.667114 
	C723.113892,1111.031860 723.075195,1101.338135 722.694031,1091.692505 
	C722.450439,1085.528198 717.570374,1082.356689 711.468811,1083.557983 
	C709.022156,1084.039673 706.558716,1084.523682 704.182678,1085.263062 
	C686.695618,1090.704224 668.695618,1090.457764 650.700439,1090.026611 
	C648.978577,1089.985229 646.377502,1088.912109 645.841248,1087.626831 
	C645.294861,1086.317017 646.575317,1084.033081 647.469788,1082.402710 
	C648.164368,1081.136597 649.486511,1080.210815 650.545227,1079.149292 
	C661.253357,1068.412842 672.068665,1057.780640 682.646667,1046.917480 
	C693.832458,1035.429932 704.128723,1023.239746 711.255127,1008.677673 
	C716.222900,998.526367 718.430969,987.932739 716.497314,976.712158 
	C713.568176,959.715210 702.818115,949.040405 687.770447,942.125000 
	C670.649292,934.256531 652.430664,932.850464 633.987427,934.124573 
	C612.345825,935.619690 592.265564,942.222229 574.148987,954.340454 
	C567.857727,958.548767 566.705750,965.560120 571.230652,971.605713 
	C573.024475,974.002441 575.065674,976.214111 577.457336,979.050781 
M880.958923,1044.663696 
	C871.278625,1028.152100 855.879395,1020.578430 837.884644,1016.949341 
	C834.781738,1016.323608 831.799805,1015.097656 828.762024,1014.148926 
	C830.475342,1011.193481 831.792114,1007.902405 833.964844,1005.335876 
	C850.862061,985.375366 867.967590,965.591309 884.857605,945.624756 
	C886.293091,943.927734 886.630493,941.301880 887.478149,939.107605 
	C885.409485,938.353943 883.343201,936.950317 881.271912,936.942993 
	C843.952026,936.810913 806.631531,936.814514 769.311279,936.874817 
	C761.622559,936.887207 755.967041,941.262634 753.886108,948.621704 
	C751.760193,956.139526 749.825317,963.711426 747.818176,971.262634 
	C747.178162,973.670654 746.338989,976.055786 746.001465,978.507935 
	C745.228882,984.121094 748.135620,986.756470 753.628174,985.532227 
	C756.220947,984.954346 758.791199,984.219299 761.308777,983.369385 
	C773.479248,979.260681 786.008118,978.060120 798.741821,978.896973 
	C801.054688,979.048950 803.297668,980.264954 805.572876,980.989746 
	C804.513794,983.124939 803.876892,985.651001 802.323608,987.328613 
	C795.080933,995.150879 787.523254,1002.680298 780.199402,1010.428894 
	C774.376526,1016.589539 771.179321,1023.944336 771.087280,1032.496094 
	C770.984253,1042.073853 775.470947,1046.634521 784.999695,1046.738647 
	C793.495117,1046.831421 802.075439,1046.192261 810.458496,1047.202515 
	C816.713623,1047.956421 823.231995,1049.901001 828.705627,1052.969727 
	C836.784851,1057.499268 838.045044,1065.776245 837.013367,1074.404419 
	C836.077271,1082.232422 830.359253,1085.654297 823.840027,1087.773193 
	C819.782288,1089.092285 815.386719,1089.571655 811.100525,1089.952881 
	C794.898682,1091.393921 779.355408,1087.619507 763.816589,1083.761719 
	C756.696533,1081.994019 752.093811,1085.660156 751.992737,1093.042969 
	C751.874146,1101.704834 751.862122,1110.371826 752.018127,1119.032715 
	C752.164917,1127.181885 755.885742,1130.926758 764.108643,1130.977905 
	C781.268188,1131.084473 798.443359,1131.399048 815.585266,1130.824463 
	C832.090271,1130.271118 847.878967,1126.372559 861.887390,1117.055420 
	C885.923889,1101.068604 894.071655,1070.834961 880.958923,1044.663696 
M132.001968,532.541138 
	C132.001968,527.797791 132.001968,523.054443 132.001968,518.274902 
	C116.664322,518.274902 101.396797,518.274902 85.845375,518.274902 
	C85.610123,523.000610 85.206551,527.479187 85.192833,531.958923 
	C85.085693,566.945496 85.046677,601.932312 85.003189,636.919006 
	C84.993294,644.879822 88.803780,648.717651 96.925865,648.850281 
	C104.088524,648.967163 111.253235,648.976379 118.417137,648.994812 
	C128.435226,649.020630 131.780106,645.677673 131.805359,635.490845 
	C131.889603,601.503662 131.938889,567.516418 132.001968,532.541138 
M178.000916,572.500000 
	C178.000061,593.987976 177.992401,615.475952 178.001877,636.963928 
	C178.005402,644.939331 181.823746,648.783813 189.924927,648.881042 
	C197.586517,648.972961 205.249344,648.985474 212.911652,648.988953 
	C220.589905,648.992432 224.536224,645.152954 224.786407,637.456116 
	C224.862137,635.126160 224.830460,632.792419 224.834610,630.460449 
	C224.891556,598.478516 224.947464,566.496582 225.000092,534.514648 
	C225.008987,529.109924 225.001358,523.705200 225.001358,518.315918 
	C209.713974,518.315918 194.465729,518.315918 178.000916,518.315918 
	C178.000916,536.244202 178.000916,553.872070 178.000916,572.500000 
M1153.927856,588.500000 
	C1153.741455,565.099731 1153.555176,541.699463 1153.370239,518.483826 
	C1137.140259,518.483826 1122.064575,518.483826 1107.326416,518.483826 
	C1107.326416,538.517334 1107.313965,558.171448 1107.329956,577.825562 
	C1107.345947,597.492126 1107.328857,617.159058 1107.450806,636.825073 
	C1107.504517,645.492249 1111.153320,649.003113 1119.670044,648.937988 
	C1127.169556,648.880615 1134.670776,648.809265 1142.166748,648.589966 
	C1150.499268,648.346008 1153.955933,644.746277 1153.959839,636.499939 
	C1153.967163,620.833313 1153.940674,605.166626 1153.927856,588.500000 
M1060.917480,617.500000 
	C1060.769287,584.455322 1060.620972,551.410583 1060.472900,518.381470 
	C1044.195923,518.381470 1029.124268,518.381470 1014.037781,518.381470 
	C1013.858765,519.105469 1013.639038,519.574158 1013.641968,520.041443 
	C1013.891602,558.830139 1014.157532,597.618652 1014.428101,636.407227 
	C1014.435059,637.404724 1014.443909,638.408936 1014.557495,639.397949 
	C1015.234680,645.292664 1018.855347,648.821289 1024.781494,648.873169 
	C1033.270386,648.947510 1041.766479,648.884094 1050.250732,648.609558 
	C1057.204468,648.384644 1060.885376,644.422913 1060.951294,637.479309 
	C1061.011475,631.153564 1060.935303,624.826477 1060.917480,617.500000 
M670.711365,634.163391 
	C686.346924,611.188110 675.892029,581.752747 649.194092,576.799561 
	C635.798401,574.314209 621.696533,575.503540 607.910400,575.339417 
	C604.115906,575.294250 603.807068,577.853516 604.525208,581.337219 
	C608.731873,601.741333 608.831665,622.227661 604.523315,642.624329 
	C603.603333,646.979858 604.699219,648.513062 608.986023,648.480347 
	C619.639160,648.399170 630.299438,648.675354 640.945435,648.386963 
	C652.593201,648.071533 662.674988,643.967712 670.711365,634.163391 
M388.994598,626.442932 
	C388.120392,633.601746 387.246185,640.760620 386.357208,648.040283 
	C394.576233,648.040283 402.772095,648.040283 411.761841,648.040283 
	C410.879822,644.640381 410.221527,641.785461 409.391968,638.981323 
	C408.217804,635.012207 407.682129,631.294312 410.940277,627.849243 
	C416.208527,622.278809 416.840027,619.273010 421.866821,628.965942 
	C424.953613,634.917969 428.688751,640.978394 433.543335,645.463440 
	C440.593048,651.976379 452.266937,648.725647 454.954773,640.285095 
	C455.411804,638.849915 454.718170,635.820312 453.694366,635.331299 
	C443.251617,630.342773 438.956940,620.350403 433.468811,611.303406 
	C431.245758,607.638916 431.746033,604.400024 434.698578,601.358704 
	C441.069519,594.796143 447.407135,588.200806 453.716675,581.579163 
	C455.209198,580.012817 456.536926,578.289490 458.580048,575.885925 
	C449.926605,575.885925 442.520935,575.608337 435.163055,576.078674 
	C433.294220,576.198181 431.295898,578.453674 429.839722,580.143555 
	C423.652191,587.324341 417.666382,594.678589 411.546875,601.918762 
	C410.819885,602.778870 409.724396,603.327576 408.799713,604.020569 
	C408.239502,603.763794 407.679291,603.506958 407.119080,603.250122 
	C408.334320,595.790161 409.599243,588.337708 410.732117,580.865173 
	C411.040833,578.828918 412.853546,575.575500 409.097717,575.363037 
	C401.522186,574.934448 393.905334,575.235352 385.177643,575.235352 
	C391.196167,592.250732 388.312286,608.950806 388.994598,626.442932 
M526.499878,648.462341 
	C531.995605,648.462402 537.491394,648.487915 542.987000,648.457397 
	C556.363708,648.383301 555.747437,650.233337 559.464172,635.628906 
	C560.853943,630.167725 559.973022,629.630005 554.531311,630.368286 
	C545.190247,631.635559 535.774475,632.402649 526.371399,633.141663 
	C521.822083,633.499146 520.346680,630.713562 520.416321,626.490845 
	C520.482422,622.476074 521.340698,619.654602 526.230347,619.747803 
	C531.546936,619.849182 536.870178,619.510742 542.191284,619.476807 
	C550.901367,619.421265 551.244446,619.198914 553.466492,610.883911 
	C554.913147,605.470825 554.043274,604.250610 548.525513,604.215698 
	C541.031677,604.168213 533.537476,604.193787 526.043396,604.192993 
	C520.823120,604.192444 520.391968,600.726257 520.428711,596.697998 
	C520.463806,592.850220 521.286499,590.293518 526.053345,590.741760 
	C535.296631,591.610962 544.580994,592.042480 553.824951,592.905579 
	C558.302612,593.323608 559.349487,592.482910 558.314453,588.156311 
	C557.735291,585.735596 556.961670,583.359985 556.425842,580.930908 
	C555.575500,577.076233 553.085449,575.248169 549.318237,575.234436 
	C533.830688,575.177917 518.342712,575.189575 502.855072,575.222107 
	C499.092590,575.229980 497.504089,576.687988 498.410278,580.877686 
	C502.857971,601.440186 502.713470,622.069336 498.551666,642.664490 
	C497.618561,647.281982 498.250977,648.394226 503.017853,648.441833 
	C510.511169,648.516785 518.005798,648.461731 526.499878,648.462341 
M749.118713,575.220276 
	C745.153259,575.413696 742.941589,577.637085 741.360535,581.177979 
	C731.962280,602.224548 722.464111,623.226868 712.891418,644.194702 
	C711.575256,647.077759 712.315857,648.323914 715.260620,648.405273 
	C719.252380,648.515686 723.265198,648.223938 727.239807,648.510193 
	C732.517456,648.890076 735.374390,646.800537 736.077576,641.472107 
	C736.626526,637.311890 739.324585,635.666077 743.458557,635.756348 
	C749.614136,635.890808 755.782593,635.981384 761.931030,635.731812 
	C767.098999,635.522034 769.702515,637.582397 770.027771,642.808533 
	C770.239258,646.205933 772.048279,648.409912 775.740295,648.433167 
	C780.899902,648.465637 786.059875,648.440186 791.219666,648.446045 
	C794.523254,648.449768 795.290466,647.109253 793.919006,644.050049 
	C785.505005,625.281982 777.106140,606.506348 768.848511,587.669189 
	C763.249878,574.897827 765.072693,575.051392 749.118713,575.220276 
M836.877258,609.500549 
	C836.813660,622.350098 837.965820,635.283691 833.150391,648.071106 
	C842.408508,648.071106 850.588196,648.071106 858.925354,648.071106 
	C854.477356,623.762756 854.500854,599.825500 859.054626,575.213684 
	C851.716431,575.213684 844.776123,575.380798 837.849182,575.148010 
	C833.984192,575.018066 832.854736,576.753479 834.102112,579.929443 
	C837.752563,589.223572 836.745056,598.903931 836.877258,609.500549 
z"/>
<path fill="#1199A9" opacity="1.000000" stroke="none" 
	d="
M1054.000244,444.240417 
	C1104.331909,444.249146 1154.163574,444.250336 1203.995361,444.256927 
	C1214.324097,444.258301 1217.129639,447.032684 1217.139648,457.222473 
	C1217.145264,462.888947 1217.157593,468.555511 1217.136475,474.221924 
	C1217.104370,482.850525 1213.990112,486.002594 1205.427979,486.005219 
	C1167.262573,486.016937 1129.096802,486.091736 1090.931763,485.976501 
	C1071.941772,485.919189 1052.938721,485.876984 1033.966675,485.163910 
	C1000.842590,483.918976 971.274475,472.127014 944.584534,453.004791 
	C896.654785,418.664948 848.909668,384.067047 801.124390,349.525879 
	C751.852905,313.910400 702.637634,278.217255 653.373291,242.591949 
	C631.680908,226.905258 607.474121,227.064148 585.781677,242.772736 
	C491.481964,311.059906 397.177704,379.340759 302.830872,447.562775 
	C281.511597,462.978699 259.052704,476.485474 232.779938,481.285278 
	C218.274277,483.935364 203.399078,485.641724 188.669922,485.794525 
	C137.010437,486.330475 85.342033,486.011597 33.677017,486.006195 
	C25.006519,486.005280 21.844950,482.905212 21.802841,474.390106 
	C21.772346,468.223785 21.771334,462.057068 21.803602,455.890747 
	C21.846724,447.650665 25.104982,444.304138 33.266502,444.270416 
	C46.099209,444.217407 58.932312,444.269012 71.765221,444.252869 
	C112.929955,444.201111 154.094772,444.178040 195.259354,444.066071 
	C221.666168,443.994232 245.888977,436.622437 267.423859,421.294830 
	C301.617645,396.957275 335.669434,372.419128 369.687042,347.835480 
	C434.217438,301.200897 498.648895,254.429306 563.185547,207.803452 
	C597.577087,182.956558 642.233215,183.135895 676.532837,207.968872 
	C770.569214,276.051239 864.603455,344.136566 958.681458,412.161316 
	C974.360229,423.498047 990.465210,434.104706 1009.465271,439.324554 
	C1023.901733,443.290649 1038.636963,444.261749 1054.000244,444.240417 
z"/>
<path fill="#1199A9" opacity="1.000000" stroke="none" 
	d="
M941.185303,347.802856 
	C865.594238,293.112976 790.363586,238.533813 714.947327,184.212448 
	C693.995056,169.120819 671.311829,157.228561 645.696350,152.123779 
	C615.030579,146.012512 585.810303,150.903488 557.802612,164.434906 
	C539.553955,173.251434 523.181274,184.947296 506.856842,196.776566 
	C422.019012,258.252899 337.072815,319.579987 252.337921,381.197723 
	C234.253937,394.348083 214.392548,400.738007 192.197723,400.687836 
	C161.031845,400.617432 129.865692,400.679108 98.699646,400.666412 
	C89.160675,400.662537 86.008827,397.546051 85.997871,388.203400 
	C85.990639,382.036865 85.953796,375.869904 86.008385,369.703857 
	C86.072205,362.495972 89.545494,358.983276 96.785126,358.974884 
	C128.617783,358.937958 160.451080,358.845428 192.282928,359.010590 
	C205.601639,359.079742 217.263504,355.237000 228.101196,347.366852 
	C317.728424,282.280975 407.449341,217.323730 497.236053,152.457901 
	C524.330566,132.883621 553.513123,117.491554 586.690674,111.063316 
	C628.203735,103.020020 667.387329,110.371078 704.786926,129.415436 
	C726.427551,140.435120 745.737854,154.927368 765.291687,169.080963 
	C847.463257,228.559006 929.660217,288.002167 1011.731628,347.618286 
	C1022.432678,355.391510 1033.997559,359.071808 1047.125366,359.007080 
	C1078.457397,358.852600 1109.790527,358.953766 1141.123291,358.961029 
	C1150.367798,358.963165 1153.452881,361.980835 1153.528442,371.172729 
	C1153.580444,377.505432 1153.667236,383.842957 1153.485962,390.171051 
	C1153.293213,396.898529 1149.846313,400.617004 1143.294312,400.608307 
	C1107.968506,400.561554 1072.637207,400.665558 1037.319824,400.045258 
	C1019.719666,399.736115 1003.875977,393.192902 989.630615,382.900146 
	C973.563843,371.291412 957.526062,359.642456 941.185303,347.802856 
z"/>
<path fill="#1099A8" opacity="1.000000" stroke="none" 
	d="
M1172.124390,875.997681 
	C1171.360718,895.999146 1174.972046,914.928711 1179.451050,933.768860 
	C1180.326904,937.453125 1180.660278,941.322021 1180.755493,945.118042 
	C1180.828125,948.012756 1179.342285,949.760254 1175.943237,948.964844 
	C1156.509277,944.417236 1137.034668,940.037048 1117.658325,935.258179 
	C1115.852173,934.812683 1113.606201,932.110657 1113.369507,930.229187 
	C1112.947021,926.873352 1113.312744,923.148621 1114.381348,919.919739 
	C1120.166992,902.437256 1121.889526,884.497375 1121.299805,866.213867 
	C1121.149536,861.555542 1121.332153,856.881348 1121.497437,852.219238 
	C1121.731689,845.617493 1120.562988,843.545044 1113.934814,842.173584 
	C1107.104492,840.760254 1100.133057,839.989990 1093.201294,839.113525 
	C1080.980469,837.568481 1068.737671,836.197937 1056.514038,834.674316 
	C1048.234497,833.642212 1043.243408,837.910583 1042.906250,846.417542 
	C1042.116333,866.343506 1043.640015,885.993286 1049.347778,905.227844 
	C1050.467529,909.001038 1050.784302,913.048401 1051.146484,916.999023 
	C1051.428955,920.079102 1049.972412,921.627991 1046.588135,921.032104 
	C1026.925903,917.569946 1007.236389,914.257751 987.612366,910.593323 
	C986.129150,910.316284 984.074341,907.720947 984.035583,906.159729 
	C983.942383,902.412109 984.303528,898.435608 985.521606,894.910950 
	C990.649109,880.073853 992.382019,864.889709 992.221741,849.232666 
	C991.889038,816.739136 991.901978,784.237610 992.219849,751.743774 
	C992.365173,736.888000 989.708069,722.656677 985.568481,708.518433 
	C981.172058,693.502991 981.917358,692.667969 997.245361,692.668091 
	C1013.243835,692.668213 1029.244629,692.822388 1045.239380,692.574829 
	C1050.016479,692.500977 1051.905762,694.556274 1051.165649,698.763611 
	C1049.988770,705.453125 1048.791992,712.221375 1046.665894,718.645996 
	C1040.625122,736.899902 1043.281128,755.631958 1043.174683,774.183777 
	C1043.136963,780.756897 1048.345703,785.745056 1054.978638,786.358704 
	C1073.880249,788.107544 1092.802124,789.693420 1111.742920,790.934998 
	C1119.823975,791.464722 1121.486816,789.585876 1121.218506,781.474915 
	C1120.619019,763.356750 1120.167358,745.217346 1118.825439,727.148254 
	C1118.303833,720.124329 1115.514404,713.273926 1113.826294,706.327820 
	C1113.396606,704.559998 1113.057373,702.737061 1112.968872,700.925171 
	C1112.612183,693.619385 1113.570679,692.669373 1120.946533,692.668640 
	C1138.778198,692.666931 1156.612671,692.841858 1174.439819,692.558044 
	C1179.501221,692.477539 1181.401733,694.800110 1180.811768,699.041138 
	C1179.852905,705.933838 1178.591187,712.837891 1176.749756,719.542725 
	C1173.281616,732.169189 1171.902222,744.894897 1172.009399,758.009583 
	C1172.329468,797.170227 1172.124390,836.335083 1172.124390,875.997681 
z"/>
<path fill="#1098A8" opacity="1.000000" stroke="none" 
	d="
M167.263474,867.789612 
	C165.119354,863.476074 162.053574,862.128113 157.642670,862.916443 
	C150.766388,864.145447 143.801315,864.878357 136.926163,866.112732 
	C128.981293,867.539062 123.951881,875.000549 125.372185,884.355225 
	C126.965721,894.850952 129.423416,905.216248 131.540314,915.631104 
	C131.936920,917.582336 132.684982,919.474670 132.952042,921.437561 
	C133.989960,929.066223 130.427292,934.136108 122.704109,936.037354 
	C107.527435,939.773438 92.338791,943.461060 77.149605,947.145996 
	C69.207458,949.072815 64.900711,945.174438 66.381721,937.031006 
	C67.749641,929.509521 70.008698,922.136780 71.135399,914.588135 
	C72.532211,905.229736 73.930855,895.763184 73.999634,886.333679 
	C74.303452,844.682373 74.031799,803.027222 74.175346,761.374207 
	C74.236221,743.710144 70.202271,726.723450 66.626846,709.625305 
	C66.056259,706.896667 65.824730,703.982666 66.091583,701.217651 
	C66.609634,695.849854 70.017876,692.710693 75.356796,692.716980 
	C107.677910,692.755249 140.087921,691.422546 172.299316,693.358459 
	C222.188492,696.356873 245.923737,730.724609 242.541550,778.038208 
	C240.934219,800.523193 233.451492,820.419800 217.219376,836.749207 
	C210.422745,843.586548 210.491486,850.892700 215.931030,858.922058 
	C220.971695,866.362732 226.955856,872.464417 235.793365,875.626709 
	C243.444962,878.364624 245.149811,883.051636 242.078522,890.643372 
	C236.164200,905.262573 225.916611,914.853149 209.972961,917.460388 
	C199.728912,919.135498 190.709244,916.263000 184.988113,907.577820 
	C180.475983,900.727966 177.409256,892.886108 174.051651,885.328857 
	C171.560410,879.721497 169.632339,873.863892 167.263474,867.789612 
M155.343460,741.888428 
	C150.018616,742.092529 144.681305,742.132996 139.371765,742.537842 
	C130.672607,743.201172 125.550285,747.690796 125.307564,756.281372 
	C124.856155,772.257446 124.875771,788.262512 125.281677,804.240723 
	C125.499229,812.804504 130.625488,816.709351 139.187622,815.882996 
	C147.799408,815.051819 156.409134,814.124512 164.977356,812.934143 
	C179.562149,810.907959 190.148178,801.409058 192.898148,786.873108 
	C194.177383,780.111267 194.475250,772.895020 193.677704,766.064636 
	C191.975616,751.487671 182.538574,743.034973 167.753326,741.769348 
	C163.963394,741.444885 160.114426,741.810303 155.343460,741.888428 
z"/>
<path fill="#1199A9" opacity="1.000000" stroke="none" 
	d="
M693.437012,342.564240 
	C712.913696,359.781464 726.308289,380.031586 729.220642,406.952087 
	C731.363403,406.952087 733.459106,406.813110 735.531250,406.974762 
	C748.284851,407.969788 761.092896,408.573456 773.763855,410.221527 
	C783.509644,411.489197 787.432922,416.998199 786.225586,424.906219 
	C785.548950,429.337982 782.672058,432.002991 778.951599,432.950439 
	C769.653809,435.318237 760.242188,437.367767 750.769836,438.877472 
	C744.090820,439.942047 737.237488,439.912994 731.235596,440.319763 
	C728.629883,450.548248 726.858704,460.586182 723.496094,470.059174 
	C716.460571,489.879120 703.582825,505.372070 685.473267,516.113403 
	C654.436890,534.522156 621.233887,539.369507 586.478577,529.590210 
	C546.494263,518.339600 523.485596,490.582428 513.063965,451.321350 
	C512.128723,447.798035 511.419800,444.214691 510.603485,440.649200 
	C500.278961,439.758911 489.986084,439.233185 479.807251,437.861389 
	C473.439972,437.003326 467.082611,435.329010 461.015961,433.185455 
	C454.552521,430.901703 452.684448,427.474304 453.006897,421.491302 
	C453.281738,416.391907 456.097961,412.457367 462.262115,411.174591 
	C471.185364,409.317627 480.279236,408.092133 489.360809,407.248413 
	C495.784332,406.651611 502.308014,407.132874 508.658081,407.132874 
	C510.159058,399.707367 511.251587,392.806396 512.976440,386.067261 
	C517.127808,369.847473 525.338196,356.147736 538.143127,345.058655 
	C555.785828,329.780060 575.011719,317.676575 598.236145,313.081970 
	C624.152588,307.954773 648.200684,313.688782 670.657959,326.685059 
	C678.540222,331.246613 685.687622,337.077850 693.437012,342.564240 
M542.442810,442.960907 
	C543.291565,445.829498 544.054016,448.726929 545.002380,451.562195 
	C554.807617,480.877563 575.198486,497.621460 605.980164,502.763702 
	C605.980164,497.005768 605.925232,491.528534 605.995483,486.052887 
	C606.067200,480.461823 604.598450,475.464752 600.349365,471.651733 
	C596.394531,468.102753 592.382568,464.593842 588.171692,461.359009 
	C580.852356,455.736206 574.845459,449.073761 572.473511,440.030731 
	C569.692383,429.427490 567.026611,418.736115 565.349731,407.921844 
	C564.271912,400.971039 564.747803,393.711517 565.155396,386.626495 
	C565.362244,383.030548 567.899719,380.906738 571.970398,380.704559 
	C576.115784,380.498688 577.594238,382.719513 578.312805,386.177582 
	C578.852417,388.774353 579.557434,391.340424 580.008667,393.951294 
	C582.371887,407.625488 585.393921,421.078522 593.773376,432.574890 
	C596.105957,435.775177 598.983154,439.764069 603.364746,438.172119 
	C607.740112,436.582397 606.492432,431.823669 606.354675,428.064178 
	C605.866943,414.757568 605.079407,401.450226 605.095520,388.143951 
	C605.100525,384.036957 606.927979,379.768677 608.610229,375.871765 
	C610.404480,371.715302 614.252075,370.427643 618.625427,371.023682 
	C622.709473,371.580383 624.620422,374.394897 625.231201,378.136169 
	C626.569824,386.335571 627.563660,394.595367 629.068298,402.762329 
	C630.504822,410.559326 631.985840,418.398834 634.284119,425.965515 
	C635.480591,429.904785 639.188416,432.219604 643.730286,432.034088 
	C648.238220,431.850006 650.154114,428.493134 651.023132,424.916473 
	C652.665894,418.155090 653.907043,411.278931 654.960999,404.396210 
	C656.190247,396.368713 656.162292,388.080597 660.670959,380.849213 
	C663.389709,376.488464 666.233582,375.998932 669.085999,380.182587 
	C671.270447,383.386627 673.276978,387.179504 673.818909,390.933411 
	C674.787659,397.643585 674.989441,404.532501 674.807129,411.327789 
	C674.309143,429.890991 669.843384,446.951141 654.796326,459.528473 
	C651.476074,462.303741 647.676147,464.621399 644.812439,467.795258 
	C641.677795,471.269318 638.045837,475.168762 637.002075,479.459717 
	C635.234070,486.727264 635.329163,494.448029 634.558105,502.885406 
	C639.685120,501.705658 643.606995,501.050232 647.375977,499.895721 
	C670.960510,492.671082 689.059265,479.411530 696.571716,454.671631 
	C700.108643,443.023529 700.334167,431.087555 699.911682,419.048889 
	C699.209839,399.052216 691.648621,382.281097 676.980774,368.663208 
	C667.241333,359.621002 656.368591,352.347015 644.027161,347.385986 
	C623.899719,339.295197 603.839355,339.571777 584.731323,349.921173 
	C575.307434,355.025391 566.757507,361.839447 558.149719,368.327667 
	C549.256531,375.031036 544.694946,384.621277 542.006042,395.198273 
	C538.021545,410.871094 538.566345,426.526276 542.442810,442.960907 
z"/>
<path fill="#1199A9" opacity="1.000000" stroke="none" 
	d="
M607.168457,788.730896 
	C607.474243,789.362915 607.581665,789.705505 607.804138,789.937744 
	C609.667664,791.882446 611.552185,793.806946 613.430420,795.737549 
	C615.309265,793.800720 617.857483,792.185181 618.964966,789.878052 
	C632.136963,762.436523 645.325806,734.997803 657.989441,707.320129 
	C662.770508,696.870667 669.953979,692.140137 681.402893,692.563721 
	C693.718018,693.019409 706.063416,692.606506 718.394775,692.689880 
	C727.372498,692.750549 730.679504,696.919861 727.898132,705.488342 
	C722.223816,722.968567 720.245789,740.795654 720.686096,759.134277 
	C721.185974,779.953308 721.115784,800.799744 720.699890,821.622437 
	C720.380249,837.627625 722.173828,853.170349 727.575623,868.263916 
	C728.133911,869.823853 728.614136,871.445923 728.851929,873.079773 
	C729.562317,877.961731 726.677856,882.091858 721.810486,881.997375 
	C706.159546,881.693420 690.501465,881.219971 674.878723,880.273499 
	C668.705933,879.899475 665.481445,874.958374 667.709290,869.217590 
	C675.699280,848.628723 675.658325,827.210754 675.266479,805.676880 
	C675.075439,795.181580 675.261963,784.679688 675.203735,774.181213 
	C675.192444,772.147034 674.838745,770.114624 674.643005,768.081421 
	C674.184326,767.994934 673.725647,767.908386 673.266968,767.821899 
	C672.155212,769.741882 670.873840,771.584534 669.957397,773.593567 
	C658.636414,798.410461 647.290466,823.216675 636.130005,848.105774 
	C632.266785,856.721191 625.718079,860.702820 616.529114,860.882996 
	C614.363220,860.925476 612.196228,860.966797 610.030334,860.944153 
	C601.182800,860.851685 594.823486,856.946594 591.122314,848.772705 
	C579.802429,823.772888 568.443665,798.790649 557.047180,773.825684 
	C556.081482,771.710205 554.722534,769.774170 553.546326,767.754761 
	C553.087585,767.886414 552.628845,768.018066 552.170105,768.149719 
	C551.988403,770.535034 551.651611,772.920166 551.648743,775.305664 
	C551.612244,805.302246 551.629456,835.298889 551.620667,865.295471 
	C551.617371,876.521790 547.537537,880.685425 536.445740,881.055359 
	C526.787964,881.377380 517.137390,881.936890 507.478394,882.197449 
	C499.578186,882.410461 496.213745,878.241577 498.785278,870.751343 
	C504.877014,853.007812 506.670349,834.833130 506.214691,816.164551 
	C505.710632,795.512573 505.784729,774.832336 506.202179,754.176453 
	C506.518860,738.505859 504.622131,723.309631 499.580414,708.481384 
	C498.835388,706.290039 498.169312,704.005554 497.944641,701.717224 
	C497.457825,696.759277 500.284698,692.971069 505.256775,692.902954 
	C521.079407,692.686096 536.923645,692.470398 552.726440,693.093506 
	C559.852295,693.374390 564.596680,698.393799 567.647034,704.891235 
	C580.724365,732.746887 593.890076,760.560974 607.168457,788.730896 
z"/>
<path fill="#1098A8" opacity="1.000000" stroke="none" 
	d="
M275.650940,791.999878 
	C275.650940,785.501404 275.444458,779.494446 275.687866,773.505859 
	C276.614502,750.708862 274.457336,728.326965 267.908844,706.368042 
	C265.163971,697.163574 268.921753,692.700867 278.464203,692.679077 
	C293.626984,692.644409 308.790070,692.624817 323.952698,692.687866 
	C332.797821,692.724609 336.378815,697.011963 333.882935,705.417297 
	C327.653564,726.395752 325.540710,747.767334 326.230743,769.575745 
	C326.731018,785.387024 325.902161,801.259644 326.865051,817.031799 
	C328.006775,835.734009 338.325287,847.793823 353.962769,850.829224 
	C372.412018,854.410400 391.045410,846.230896 398.694397,830.147583 
	C401.615753,824.004944 403.625183,816.845215 403.806030,810.088928 
	C404.416504,787.278503 404.804810,764.402588 403.685089,741.630005 
	C403.105530,729.843750 399.388641,718.171692 396.684143,706.542236 
	C394.365540,696.572083 397.082520,692.695251 407.293091,692.677063 
	C422.289307,692.650391 437.285675,692.633301 452.281738,692.685364 
	C461.680328,692.718018 465.041260,696.753601 462.296021,705.601440 
	C456.457794,724.417969 454.217041,743.574341 454.969330,763.241211 
	C455.459381,776.052612 454.828125,788.902893 455.102722,801.727112 
	C456.141510,850.243164 426.681915,881.599792 384.421906,892.774170 
	C367.515381,897.244629 350.247009,898.794250 332.944794,895.575623 
	C303.184906,890.039551 283.291779,870.864380 278.336761,840.751160 
	C275.736389,824.947998 276.439667,808.601196 275.650940,791.999878 
z"/>
<path fill="#1099A9" opacity="1.000000" stroke="none" 
	d="
M416.832581,1033.098511 
	C415.152710,1073.280762 450.582031,1093.045776 484.785065,1084.612549 
	C487.524384,1083.937256 490.253479,1083.148193 492.895752,1082.165771 
	C499.158051,1079.837402 501.828796,1075.734009 502.241272,1069.037109 
	C502.858154,1059.021118 501.081726,1049.531006 496.984131,1040.379395 
	C493.569550,1032.753296 496.350067,1028.467041 504.803101,1028.383789 
	C517.963989,1028.254150 531.128052,1028.251587 544.288818,1028.384766 
	C553.031738,1028.473267 555.657715,1032.667358 552.052979,1040.682251 
	C548.018066,1049.653687 546.271790,1059.038330 546.308777,1068.820435 
	C546.337708,1076.484375 546.334290,1084.148560 546.305115,1091.812500 
	C546.268921,1101.327393 542.283875,1108.466553 533.565063,1112.681396 
	C501.288757,1128.284546 467.775513,1135.455078 432.433228,1125.481934 
	C359.004883,1104.761230 348.014862,1024.684570 384.388397,977.201416 
	C385.598083,975.622253 386.827698,974.058350 388.290039,972.175842 
	C380.687439,964.191040 373.128265,956.250549 365.566956,948.312073 
	C364.417908,947.105652 362.976044,946.071594 362.168884,944.670288 
	C360.855225,942.389526 359.953552,939.871399 358.877991,937.453491 
	C361.260925,936.638733 363.630341,935.169495 366.029114,935.119995 
	C377.853333,934.875854 389.685364,935.008301 401.514618,935.007385 
	C426.339417,935.005432 451.165985,934.815430 475.988464,935.054871 
	C500.001984,935.286560 522.287415,941.780945 542.525146,954.858521 
	C550.616760,960.087280 551.623352,966.781189 545.514832,974.133606 
	C539.447571,981.436340 533.322510,988.691956 527.152161,995.907898 
	C522.209839,1001.687744 517.504211,1001.757324 512.637085,995.780457 
	C502.643188,983.507446 489.459534,978.291443 474.063507,978.090210 
	C458.904877,977.892029 443.741760,978.028625 428.580627,978.049438 
	C426.981384,978.051636 425.382446,978.263123 423.783356,978.377441 
	C423.498230,978.800049 423.213074,979.222717 422.927917,979.645325 
	C426.811279,983.926575 430.694611,988.207825 434.798981,992.732727 
	C423.805786,1003.719482 417.475769,1016.908752 416.832581,1033.098511 
z"/>
<path fill="#1099A8" opacity="1.000000" stroke="none" 
	d="
M942.194519,903.839722 
	C933.193848,902.532654 924.635315,901.260681 916.070679,900.030457 
	C908.374329,898.924927 902.321106,893.117798 901.034485,885.437927 
	C900.347290,881.336487 899.964050,877.177979 899.138611,873.107117 
	C897.692688,865.975525 892.224792,860.820435 885.127014,860.150818 
	C865.899597,858.336975 846.666870,856.550659 827.412598,855.059631 
	C816.883423,854.244263 811.627991,858.119019 809.885437,868.430847 
	C806.914612,886.011719 799.853882,888.415527 785.233276,886.353699 
	C774.870300,884.892273 764.320190,884.771790 753.858093,883.992554 
	C747.204651,883.496887 744.488403,879.264038 747.938538,873.926636 
	C768.763794,841.709351 781.518188,805.645203 797.195007,770.984863 
	C807.061035,749.171692 816.328918,727.087341 825.797546,705.095581 
	C829.338135,696.872375 835.373352,692.615112 844.399536,692.662354 
	C852.730103,692.705994 861.061340,692.635376 869.391907,692.679749 
	C878.779175,692.729736 884.693970,696.652283 888.140686,705.506104 
	C902.796326,743.153442 917.434692,780.807922 931.934998,818.515259 
	C941.899475,844.427185 950.961426,870.699646 964.021851,895.333374 
	C965.305542,897.754700 965.776367,901.923889 964.507690,903.968018 
	C963.478577,905.626160 959.244568,905.865906 956.475098,905.745178 
	C951.843323,905.543091 947.245850,904.551941 942.194519,903.839722 
M868.701172,818.273926 
	C877.513428,818.712830 880.702576,814.831848 877.826355,806.777100 
	C871.954895,790.333801 865.977844,773.927063 859.854797,757.576233 
	C859.178589,755.770508 857.270874,754.425964 855.934265,752.867493 
	C854.419434,754.420105 852.252625,755.706421 851.492676,757.567383 
	C845.205811,772.961304 839.136963,788.445007 833.093262,803.937134 
	C830.357422,810.950073 832.936707,815.475220 840.433411,816.231689 
	C849.543335,817.150879 858.703613,817.570862 868.701172,818.273926 
z"/>
<path fill="#1099A8" opacity="1.000000" stroke="none" 
	d="
M577.225769,978.780396 
	C575.065674,976.214111 573.024475,974.002441 571.230652,971.605713 
	C566.705750,965.560120 567.857727,958.548767 574.148987,954.340454 
	C592.265564,942.222229 612.345825,935.619690 633.987427,934.124573 
	C652.430664,932.850464 670.649292,934.256531 687.770447,942.125000 
	C702.818115,949.040405 713.568176,959.715210 716.497314,976.712158 
	C718.430969,987.932739 716.222900,998.526367 711.255127,1008.677673 
	C704.128723,1023.239746 693.832458,1035.429932 682.646667,1046.917480 
	C672.068665,1057.780640 661.253357,1068.412842 650.545227,1079.149292 
	C649.486511,1080.210815 648.164368,1081.136597 647.469788,1082.402710 
	C646.575317,1084.033081 645.294861,1086.317017 645.841248,1087.626831 
	C646.377502,1088.912109 648.978577,1089.985229 650.700439,1090.026611 
	C668.695618,1090.457764 686.695618,1090.704224 704.182678,1085.263062 
	C706.558716,1084.523682 709.022156,1084.039673 711.468811,1083.557983 
	C717.570374,1082.356689 722.450439,1085.528198 722.694031,1091.692505 
	C723.075195,1101.338135 723.113892,1111.031860 722.591553,1120.667114 
	C722.206543,1127.768188 718.343933,1130.953125 710.974060,1130.969604 
	C669.482300,1131.062256 627.990051,1131.061279 586.498169,1130.990601 
	C579.730713,1130.979126 575.595703,1126.572388 574.695557,1119.869995 
	C572.760132,1105.460571 576.948914,1093.771240 587.538025,1083.389038 
	C607.640503,1063.679199 627.161682,1043.359985 646.462830,1022.859436 
	C652.321411,1016.636719 657.602905,1009.468140 661.494690,1001.884033 
	C668.545105,988.144226 661.293335,977.264709 645.802795,976.915222 
	C629.565491,976.548889 615.798645,981.773865 605.165710,994.481201 
	C600.039185,1000.607849 595.556458,1000.458069 590.343262,994.336182 
	C586.022705,989.262512 581.750793,984.147522 577.225769,978.780396 
z"/>
<path fill="#1099A8" opacity="1.000000" stroke="none" 
	d="
M881.121948,1044.998779 
	C894.071655,1070.834961 885.923889,1101.068604 861.887390,1117.055420 
	C847.878967,1126.372559 832.090271,1130.271118 815.585266,1130.824463 
	C798.443359,1131.399048 781.268188,1131.084473 764.108643,1130.977905 
	C755.885742,1130.926758 752.164917,1127.181885 752.018127,1119.032715 
	C751.862122,1110.371826 751.874146,1101.704834 751.992737,1093.042969 
	C752.093811,1085.660156 756.696533,1081.994019 763.816589,1083.761719 
	C779.355408,1087.619507 794.898682,1091.393921 811.100525,1089.952881 
	C815.386719,1089.571655 819.782288,1089.092285 823.840027,1087.773193 
	C830.359253,1085.654297 836.077271,1082.232422 837.013367,1074.404419 
	C838.045044,1065.776245 836.784851,1057.499268 828.705627,1052.969727 
	C823.231995,1049.901001 816.713623,1047.956421 810.458496,1047.202515 
	C802.075439,1046.192261 793.495117,1046.831421 784.999695,1046.738647 
	C775.470947,1046.634521 770.984253,1042.073853 771.087280,1032.496094 
	C771.179321,1023.944336 774.376526,1016.589539 780.199402,1010.428894 
	C787.523254,1002.680298 795.080933,995.150879 802.323608,987.328613 
	C803.876892,985.651001 804.513794,983.124939 805.572876,980.989746 
	C803.297668,980.264954 801.054688,979.048950 798.741821,978.896973 
	C786.008118,978.060120 773.479248,979.260681 761.308777,983.369385 
	C758.791199,984.219299 756.220947,984.954346 753.628174,985.532227 
	C748.135620,986.756470 745.228882,984.121094 746.001465,978.507935 
	C746.338989,976.055786 747.178162,973.670654 747.818176,971.262634 
	C749.825317,963.711426 751.760193,956.139526 753.886108,948.621704 
	C755.967041,941.262634 761.622559,936.887207 769.311279,936.874817 
	C806.631531,936.814514 843.952026,936.810913 881.271912,936.942993 
	C883.343201,936.950317 885.409485,938.353943 887.478149,939.107605 
	C886.630493,941.301880 886.293091,943.927734 884.857605,945.624756 
	C867.967590,965.591309 850.862061,985.375366 833.964844,1005.335876 
	C831.792114,1007.902405 830.475342,1011.193481 828.762024,1014.148926 
	C831.799805,1015.097656 834.781738,1016.323608 837.884644,1016.949341 
	C855.879395,1020.578430 871.278625,1028.152100 881.121948,1044.998779 
z"/>
<path fill="#1099A9" opacity="1.000000" stroke="none" 
	d="
M132.001770,533.035156 
	C131.938889,567.516418 131.889603,601.503662 131.805359,635.490845 
	C131.780106,645.677673 128.435226,649.020630 118.417137,648.994812 
	C111.253235,648.976379 104.088524,648.967163 96.925865,648.850281 
	C88.803780,648.717651 84.993294,644.879822 85.003189,636.919006 
	C85.046677,601.932312 85.085693,566.945496 85.192833,531.958923 
	C85.206551,527.479187 85.610123,523.000610 85.845375,518.274902 
	C101.396797,518.274902 116.664322,518.274902 132.001968,518.274902 
	C132.001968,523.054443 132.001968,527.797791 132.001770,533.035156 
z"/>
<path fill="#1099A8" opacity="1.000000" stroke="none" 
	d="
M178.000916,572.000000 
	C178.000916,553.872070 178.000916,536.244202 178.000916,518.315918 
	C194.465729,518.315918 209.713974,518.315918 225.001358,518.315918 
	C225.001358,523.705200 225.008987,529.109924 225.000092,534.514648 
	C224.947464,566.496582 224.891556,598.478516 224.834610,630.460449 
	C224.830460,632.792419 224.862137,635.126160 224.786407,637.456116 
	C224.536224,645.152954 220.589905,648.992432 212.911652,648.988953 
	C205.249344,648.985474 197.586517,648.972961 189.924927,648.881042 
	C181.823746,648.783813 178.005402,644.939331 178.001877,636.963928 
	C177.992401,615.475952 178.000061,593.987976 178.000916,572.000000 
z"/>
<path fill="#1299A9" opacity="1.000000" stroke="none" 
	d="
M1153.928101,589.000000 
	C1153.940674,605.166626 1153.967163,620.833313 1153.959839,636.499939 
	C1153.955933,644.746277 1150.499268,648.346008 1142.166748,648.589966 
	C1134.670776,648.809265 1127.169556,648.880615 1119.670044,648.937988 
	C1111.153320,649.003113 1107.504517,645.492249 1107.450806,636.825073 
	C1107.328857,617.159058 1107.345947,597.492126 1107.329956,577.825562 
	C1107.313965,558.171448 1107.326416,538.517334 1107.326416,518.483826 
	C1122.064575,518.483826 1137.140259,518.483826 1153.370239,518.483826 
	C1153.555176,541.699463 1153.741455,565.099731 1153.928101,589.000000 
z"/>
<path fill="#1299A9" opacity="1.000000" stroke="none" 
	d="
M1060.918213,618.000000 
	C1060.935303,624.826477 1061.011475,631.153564 1060.951294,637.479309 
	C1060.885376,644.422913 1057.204468,648.384644 1050.250732,648.609558 
	C1041.766479,648.884094 1033.270386,648.947510 1024.781494,648.873169 
	C1018.855347,648.821289 1015.234680,645.292664 1014.557495,639.397949 
	C1014.443909,638.408936 1014.435059,637.404724 1014.428101,636.407227 
	C1014.157532,597.618652 1013.891602,558.830139 1013.641968,520.041443 
	C1013.639038,519.574158 1013.858765,519.105469 1014.037781,518.381470 
	C1029.124268,518.381470 1044.195923,518.381470 1060.472900,518.381470 
	C1060.620972,551.410583 1060.769287,584.455322 1060.918213,618.000000 
z"/>
<path fill="#1299A9" opacity="1.000000" stroke="none" 
	d="
M670.482910,634.440308 
	C662.674988,643.967712 652.593201,648.071533 640.945435,648.386963 
	C630.299438,648.675354 619.639160,648.399170 608.986023,648.480347 
	C604.699219,648.513062 603.603333,646.979858 604.523315,642.624329 
	C608.831665,622.227661 608.731873,601.741333 604.525208,581.337219 
	C603.807068,577.853516 604.115906,575.294250 607.910400,575.339417 
	C621.696533,575.503540 635.798401,574.314209 649.194092,576.799561 
	C675.892029,581.752747 686.346924,611.188110 670.482910,634.440308 
M626.326965,599.780396 
	C626.326965,606.760925 626.326965,613.741516 626.326904,620.722046 
	C626.326904,633.328491 626.326904,633.328491 639.139160,632.993896 
	C647.922241,632.764526 654.386108,627.958191 656.967590,619.737183 
	C661.908447,604.002319 652.558472,591.108337 636.130371,591.001587 
	C627.377258,590.944763 626.498840,591.648804 626.326965,599.780396 
z"/>
<path fill="#1299A9" opacity="1.000000" stroke="none" 
	d="
M388.994598,625.950928 
	C388.312286,608.950806 391.196167,592.250732 385.177643,575.235352 
	C393.905334,575.235352 401.522186,574.934448 409.097717,575.363037 
	C412.853546,575.575500 411.040833,578.828918 410.732117,580.865173 
	C409.599243,588.337708 408.334320,595.790161 407.119080,603.250122 
	C407.679291,603.506958 408.239502,603.763794 408.799713,604.020569 
	C409.724396,603.327576 410.819885,602.778870 411.546875,601.918762 
	C417.666382,594.678589 423.652191,587.324341 429.839722,580.143555 
	C431.295898,578.453674 433.294220,576.198181 435.163055,576.078674 
	C442.520935,575.608337 449.926605,575.885925 458.580048,575.885925 
	C456.536926,578.289490 455.209198,580.012817 453.716675,581.579163 
	C447.407135,588.200806 441.069519,594.796143 434.698578,601.358704 
	C431.746033,604.400024 431.245758,607.638916 433.468811,611.303406 
	C438.956940,620.350403 443.251617,630.342773 453.694366,635.331299 
	C454.718170,635.820312 455.411804,638.849915 454.954773,640.285095 
	C452.266937,648.725647 440.593048,651.976379 433.543335,645.463440 
	C428.688751,640.978394 424.953613,634.917969 421.866821,628.965942 
	C416.840027,619.273010 416.208527,622.278809 410.940277,627.849243 
	C407.682129,631.294312 408.217804,635.012207 409.391968,638.981323 
	C410.221527,641.785461 410.879822,644.640381 411.761841,648.040283 
	C402.772095,648.040283 394.576233,648.040283 386.357208,648.040283 
	C387.246185,640.760620 388.120392,633.601746 388.994598,625.950928 
z"/>
<path fill="#149AAA" opacity="1.000000" stroke="none" 
	d="
M525.999878,648.462036 
	C518.005798,648.461731 510.511169,648.516785 503.017853,648.441833 
	C498.250977,648.394226 497.618561,647.281982 498.551666,642.664490 
	C502.713470,622.069336 502.857971,601.440186 498.410278,580.877686 
	C497.504089,576.687988 499.092590,575.229980 502.855072,575.222107 
	C518.342712,575.189575 533.830688,575.177917 549.318237,575.234436 
	C553.085449,575.248169 555.575500,577.076233 556.425842,580.930908 
	C556.961670,583.359985 557.735291,585.735596 558.314453,588.156311 
	C559.349487,592.482910 558.302612,593.323608 553.824951,592.905579 
	C544.580994,592.042480 535.296631,591.610962 526.053345,590.741760 
	C521.286499,590.293518 520.463806,592.850220 520.428711,596.697998 
	C520.391968,600.726257 520.823120,604.192444 526.043396,604.192993 
	C533.537476,604.193787 541.031677,604.168213 548.525513,604.215698 
	C554.043274,604.250610 554.913147,605.470825 553.466492,610.883911 
	C551.244446,619.198914 550.901367,619.421265 542.191284,619.476807 
	C536.870178,619.510742 531.546936,619.849182 526.230347,619.747803 
	C521.340698,619.654602 520.482422,622.476074 520.416321,626.490845 
	C520.346680,630.713562 521.822083,633.499146 526.371399,633.141663 
	C535.774475,632.402649 545.190247,631.635559 554.531311,630.368286 
	C559.973022,629.630005 560.853943,630.167725 559.464172,635.628906 
	C555.747437,650.233337 556.363708,648.383301 542.987000,648.457397 
	C537.491394,648.487915 531.995605,648.462402 525.999878,648.462036 
z"/>
<path fill="#1299A9" opacity="1.000000" stroke="none" 
	d="
M749.553345,575.215759 
	C765.072693,575.051392 763.249878,574.897827 768.848511,587.669189 
	C777.106140,606.506348 785.505005,625.281982 793.919006,644.050049 
	C795.290466,647.109253 794.523254,648.449768 791.219666,648.446045 
	C786.059875,648.440186 780.899902,648.465637 775.740295,648.433167 
	C772.048279,648.409912 770.239258,646.205933 770.027771,642.808533 
	C769.702515,637.582397 767.098999,635.522034 761.931030,635.731812 
	C755.782593,635.981384 749.614136,635.890808 743.458557,635.756348 
	C739.324585,635.666077 736.626526,637.311890 736.077576,641.472107 
	C735.374390,646.800537 732.517456,648.890076 727.239807,648.510193 
	C723.265198,648.223938 719.252380,648.515686 715.260620,648.405273 
	C712.315857,648.323914 711.575256,647.077759 712.891418,644.194702 
	C722.464111,623.226868 731.962280,602.224548 741.360535,581.177979 
	C742.941589,577.637085 745.153259,575.413696 749.553345,575.215759 
M746.108154,613.482483 
	C745.754028,615.834656 742.466553,619.363220 746.201660,620.238159 
	C750.813171,621.318420 755.937195,620.210388 760.839783,620.047974 
	C760.231262,616.834473 759.746216,613.590759 758.970398,610.418152 
	C758.461060,608.335571 757.591187,606.331421 756.774841,604.336304 
	C755.833618,602.036072 754.773560,599.784485 753.765137,597.511780 
	C753.333984,597.571472 752.902893,597.631104 752.471741,597.690735 
	C750.445740,602.721375 748.419739,607.751953 746.108154,613.482483 
z"/>
<path fill="#1199A9" opacity="1.000000" stroke="none" 
	d="
M836.877258,609.000732 
	C836.745056,598.903931 837.752563,589.223572 834.102112,579.929443 
	C832.854736,576.753479 833.984192,575.018066 837.849182,575.148010 
	C844.776123,575.380798 851.716431,575.213684 859.054626,575.213684 
	C854.500854,599.825500 854.477356,623.762756 858.925354,648.071106 
	C850.588196,648.071106 842.408508,648.071106 833.150391,648.071106 
	C837.965820,635.283691 836.813660,622.350098 836.877258,609.000732 
z"/>
<path fill="#FDFEFE" opacity="1.000000" stroke="none" 
	d="
M155.818024,741.873657 
	C160.114426,741.810303 163.963394,741.444885 167.753326,741.769348 
	C182.538574,743.034973 191.975616,751.487671 193.677704,766.064636 
	C194.475250,772.895020 194.177383,780.111267 192.898148,786.873108 
	C190.148178,801.409058 179.562149,810.907959 164.977356,812.934143 
	C156.409134,814.124512 147.799408,815.051819 139.187622,815.882996 
	C130.625488,816.709351 125.499229,812.804504 125.281677,804.240723 
	C124.875771,788.262512 124.856155,772.257446 125.307564,756.281372 
	C125.550285,747.690796 130.672607,743.201172 139.371765,742.537842 
	C144.681305,742.132996 150.018616,742.092529 155.818024,741.873657 
z"/>
<path fill="#FDFEFE" opacity="1.000000" stroke="none" 
	d="
M542.319580,442.564758 
	C538.566345,426.526276 538.021545,410.871094 542.006042,395.198273 
	C544.694946,384.621277 549.256531,375.031036 558.149719,368.327667 
	C566.757507,361.839447 575.307434,355.025391 584.731323,349.921173 
	C603.839355,339.571777 623.899719,339.295197 644.027161,347.385986 
	C656.368591,352.347015 667.241333,359.621002 676.980774,368.663208 
	C691.648621,382.281097 699.209839,399.052216 699.911682,419.048889 
	C700.334167,431.087555 700.108643,443.023529 696.571716,454.671631 
	C689.059265,479.411530 670.960510,492.671082 647.375977,499.895721 
	C643.606995,501.050232 639.685120,501.705658 634.558105,502.885406 
	C635.329163,494.448029 635.234070,486.727264 637.002075,479.459717 
	C638.045837,475.168762 641.677795,471.269318 644.812439,467.795258 
	C647.676147,464.621399 651.476074,462.303741 654.796326,459.528473 
	C669.843384,446.951141 674.309143,429.890991 674.807129,411.327789 
	C674.989441,404.532501 674.787659,397.643585 673.818909,390.933411 
	C673.276978,387.179504 671.270447,383.386627 669.085999,380.182587 
	C666.233582,375.998932 663.389709,376.488464 660.670959,380.849213 
	C656.162292,388.080597 656.190247,396.368713 654.960999,404.396210 
	C653.907043,411.278931 652.665894,418.155090 651.023132,424.916473 
	C650.154114,428.493134 648.238220,431.850006 643.730286,432.034088 
	C639.188416,432.219604 635.480591,429.904785 634.284119,425.965515 
	C631.985840,418.398834 630.504822,410.559326 629.068298,402.762329 
	C627.563660,394.595367 626.569824,386.335571 625.231201,378.136169 
	C624.620422,374.394897 622.709473,371.580383 618.625427,371.023682 
	C614.252075,370.427643 610.404480,371.715302 608.610229,375.871765 
	C606.927979,379.768677 605.100525,384.036957 605.095520,388.143951 
	C605.079407,401.450226 605.866943,414.757568 606.354675,428.064178 
	C606.492432,431.823669 607.740112,436.582397 603.364746,438.172119 
	C598.983154,439.764069 596.105957,435.775177 593.773376,432.574890 
	C585.393921,421.078522 582.371887,407.625488 580.008667,393.951294 
	C579.557434,391.340424 578.852417,388.774353 578.312805,386.177582 
	C577.594238,382.719513 576.115784,380.498688 571.970398,380.704559 
	C567.899719,380.906738 565.362244,383.030548 565.155396,386.626495 
	C564.747803,393.711517 564.271912,400.971039 565.349731,407.921844 
	C567.026611,418.736115 569.692383,429.427490 572.473511,440.030731 
	C574.845459,449.073761 580.852356,455.736206 588.171692,461.359009 
	C592.382568,464.593842 596.394531,468.102753 600.349365,471.651733 
	C604.598450,475.464752 606.067200,480.461823 605.995483,486.052887 
	C605.925232,491.528534 605.980164,497.005768 605.980164,502.763702 
	C575.198486,497.621460 554.807617,480.877563 545.002380,451.562195 
	C544.054016,448.726929 543.291565,445.829498 542.319580,442.564758 
z"/>
<path fill="#FDFEFE" opacity="1.000000" stroke="none" 
	d="
M868.271606,818.240356 
	C858.703613,817.570862 849.543335,817.150879 840.433411,816.231689 
	C832.936707,815.475220 830.357422,810.950073 833.093262,803.937134 
	C839.136963,788.445007 845.205811,772.961304 851.492676,757.567383 
	C852.252625,755.706421 854.419434,754.420105 855.934326,752.867554 
	C857.270874,754.425964 859.178589,755.770508 859.854797,757.576233 
	C865.977844,773.927063 871.954895,790.333801 877.826355,806.777100 
	C880.702576,814.831848 877.513428,818.712830 868.271606,818.240356 
z"/>
<path fill="#FDFEFE" opacity="1.000000" stroke="none" 
	d="
M626.327087,599.320190 
	C626.498840,591.648804 627.377258,590.944763 636.130371,591.001587 
	C652.558472,591.108337 661.908447,604.002319 656.967590,619.737183 
	C654.386108,627.958191 647.922241,632.764526 639.139160,632.993896 
	C626.326904,633.328491 626.326904,633.328491 626.326904,620.722046 
	C626.326965,613.741516 626.326965,606.760925 626.327087,599.320190 
z"/>
<path fill="#FDFEFE" opacity="1.000000" stroke="none" 
	d="
M746.250916,613.132507 
	C748.419739,607.751953 750.445740,602.721375 752.471741,597.690735 
	C752.902893,597.631104 753.333984,597.571472 753.765137,597.511780 
	C754.773560,599.784485 755.833618,602.036072 756.774841,604.336304 
	C757.591187,606.331421 758.461060,608.335571 758.970398,610.418152 
	C759.746216,613.590759 760.231262,616.834473 760.839783,620.047974 
	C755.937195,620.210388 750.813171,621.318420 746.201660,620.238159 
	C742.466553,619.363220 745.754028,615.834656 746.250916,613.132507 
z"/>
</svg>